<mxfile host="app.diagrams.net" modified="2021-04-20T02:36:48.493Z" agent="5.0 (Windows NT 10.0; Win64; x64) AppleWebKit/537.36 (KHTML, like Gecko) Chrome/88.0.4324.182 Safari/537.36" etag="MpgyVHOsf4VpXT0wkqiM" version="14.6.0" type="github" pages="2">
  <diagram id="-L7ix5DPp1kB15Lygdbr" name="实体关系图">
    <mxGraphModel dx="1695" dy="482" grid="0" gridSize="10" guides="1" tooltips="1" connect="1" arrows="1" fold="1" page="1" pageScale="1" pageWidth="827" pageHeight="1169" math="0" shadow="0">
      <root>
        <mxCell id="0" />
        <mxCell id="1" parent="0" />
        <mxCell id="4BjCStXGe_NqK06q4r3H-1" value="课程" style="whiteSpace=wrap;html=1;align=center;" parent="1" vertex="1">
          <mxGeometry x="100" y="200" width="100" height="40" as="geometry" />
        </mxCell>
        <mxCell id="gC5RuG404NoL9wYbjX_Y-1" value="课程章节" style="whiteSpace=wrap;html=1;align=center;" parent="1" vertex="1">
          <mxGeometry x="390" y="200" width="100" height="40" as="geometry" />
        </mxCell>
        <mxCell id="mg0uCeIPC5tOsysVymLw-1" value="课程小节" style="whiteSpace=wrap;html=1;align=center;" parent="1" vertex="1">
          <mxGeometry x="510" y="40" width="100" height="40" as="geometry" />
        </mxCell>
        <mxCell id="mg0uCeIPC5tOsysVymLw-2" value="添加大章" style="shape=rhombus;perimeter=rhombusPerimeter;whiteSpace=wrap;html=1;align=center;" parent="1" vertex="1">
          <mxGeometry x="240" y="190" width="120" height="60" as="geometry" />
        </mxCell>
        <mxCell id="RDEdlRMHV0isR1jpHi3N-1" value="1" style="endArrow=none;html=1;rounded=0;exitX=1;exitY=0.5;exitDx=0;exitDy=0;" parent="1" source="4BjCStXGe_NqK06q4r3H-1" edge="1">
          <mxGeometry relative="1" as="geometry">
            <mxPoint x="215" y="160" as="sourcePoint" />
            <mxPoint x="240" y="220" as="targetPoint" />
            <Array as="points">
              <mxPoint x="220" y="220" />
            </Array>
          </mxGeometry>
        </mxCell>
        <mxCell id="RDEdlRMHV0isR1jpHi3N-2" value="n" style="endArrow=none;html=1;rounded=0;exitX=1;exitY=0.5;exitDx=0;exitDy=0;" parent="1" edge="1">
          <mxGeometry relative="1" as="geometry">
            <mxPoint x="360" y="219.5" as="sourcePoint" />
            <mxPoint x="390" y="220" as="targetPoint" />
          </mxGeometry>
        </mxCell>
        <mxCell id="RDEdlRMHV0isR1jpHi3N-5" value="1" style="endArrow=none;html=1;rounded=0;exitX=1;exitY=0.5;exitDx=0;exitDy=0;entryX=0.5;entryY=1;entryDx=0;entryDy=0;" parent="1" target="RDEdlRMHV0isR1jpHi3N-3" edge="1">
          <mxGeometry relative="1" as="geometry">
            <mxPoint x="490" y="219.5" as="sourcePoint" />
            <mxPoint x="520" y="220" as="targetPoint" />
          </mxGeometry>
        </mxCell>
        <mxCell id="RDEdlRMHV0isR1jpHi3N-6" value="n" style="endArrow=none;html=1;rounded=0;entryX=0.5;entryY=1;entryDx=0;entryDy=0;" parent="1" source="RDEdlRMHV0isR1jpHi3N-3" target="mg0uCeIPC5tOsysVymLw-1" edge="1">
          <mxGeometry relative="1" as="geometry">
            <mxPoint x="640" y="220" as="sourcePoint" />
            <mxPoint x="660" y="230" as="targetPoint" />
          </mxGeometry>
        </mxCell>
        <mxCell id="RDEdlRMHV0isR1jpHi3N-7" value="添加简介" style="shape=rhombus;perimeter=rhombusPerimeter;whiteSpace=wrap;html=1;align=center;" parent="1" vertex="1">
          <mxGeometry x="240" y="270" width="120" height="60" as="geometry" />
        </mxCell>
        <mxCell id="RDEdlRMHV0isR1jpHi3N-8" value="1" style="endArrow=none;html=1;rounded=0;exitX=0.75;exitY=1;exitDx=0;exitDy=0;entryX=0;entryY=0.5;entryDx=0;entryDy=0;" parent="1" source="4BjCStXGe_NqK06q4r3H-1" target="RDEdlRMHV0isR1jpHi3N-7" edge="1">
          <mxGeometry relative="1" as="geometry">
            <mxPoint x="180" y="260" as="sourcePoint" />
            <mxPoint x="220" y="260" as="targetPoint" />
            <Array as="points" />
          </mxGeometry>
        </mxCell>
        <mxCell id="RDEdlRMHV0isR1jpHi3N-9" value="1" style="endArrow=none;html=1;rounded=0;exitX=1;exitY=0.5;exitDx=0;exitDy=0;entryX=0;entryY=0.5;entryDx=0;entryDy=0;" parent="1" target="RDEdlRMHV0isR1jpHi3N-10" edge="1">
          <mxGeometry relative="1" as="geometry">
            <mxPoint x="360" y="299.5" as="sourcePoint" />
            <mxPoint x="400" y="299.5" as="targetPoint" />
            <Array as="points">
              <mxPoint x="380" y="299.5" />
            </Array>
          </mxGeometry>
        </mxCell>
        <mxCell id="RDEdlRMHV0isR1jpHi3N-10" value="课程简介" style="whiteSpace=wrap;html=1;align=center;" parent="1" vertex="1">
          <mxGeometry x="390" y="280" width="100" height="40" as="geometry" />
        </mxCell>
        <mxCell id="RDEdlRMHV0isR1jpHi3N-11" value="课程科目" style="whiteSpace=wrap;html=1;align=center;" parent="1" vertex="1">
          <mxGeometry x="390" y="120" width="100" height="40" as="geometry" />
        </mxCell>
        <mxCell id="RDEdlRMHV0isR1jpHi3N-12" value="所属科目" style="shape=rhombus;perimeter=rhombusPerimeter;whiteSpace=wrap;html=1;align=center;" parent="1" vertex="1">
          <mxGeometry x="240" y="110" width="120" height="60" as="geometry" />
        </mxCell>
        <mxCell id="RDEdlRMHV0isR1jpHi3N-15" value="1" style="endArrow=none;html=1;rounded=0;exitX=1;exitY=0.5;exitDx=0;exitDy=0;entryX=0;entryY=0.5;entryDx=0;entryDy=0;" parent="1" source="RDEdlRMHV0isR1jpHi3N-12" target="RDEdlRMHV0isR1jpHi3N-11" edge="1">
          <mxGeometry relative="1" as="geometry">
            <mxPoint x="370" y="309.5" as="sourcePoint" />
            <mxPoint x="400" y="310" as="targetPoint" />
            <Array as="points" />
          </mxGeometry>
        </mxCell>
        <mxCell id="RDEdlRMHV0isR1jpHi3N-18" value="n" style="endArrow=none;html=1;rounded=0;entryX=0;entryY=0.5;entryDx=0;entryDy=0;" parent="1" source="4BjCStXGe_NqK06q4r3H-1" edge="1">
          <mxGeometry relative="1" as="geometry">
            <mxPoint x="200" y="80" as="sourcePoint" />
            <mxPoint x="240" y="140" as="targetPoint" />
            <Array as="points" />
          </mxGeometry>
        </mxCell>
        <mxCell id="RDEdlRMHV0isR1jpHi3N-19" value="授课" style="shape=rhombus;perimeter=rhombusPerimeter;whiteSpace=wrap;html=1;align=center;" parent="1" vertex="1">
          <mxGeometry x="90" y="110" width="120" height="60" as="geometry" />
        </mxCell>
        <mxCell id="RDEdlRMHV0isR1jpHi3N-20" value="讲师" style="whiteSpace=wrap;html=1;align=center;" parent="1" vertex="1">
          <mxGeometry x="100" y="40" width="100" height="40" as="geometry" />
        </mxCell>
        <mxCell id="RDEdlRMHV0isR1jpHi3N-21" value="1" style="endArrow=none;html=1;rounded=0;exitX=0.5;exitY=1;exitDx=0;exitDy=0;" parent="1" source="RDEdlRMHV0isR1jpHi3N-20" edge="1">
          <mxGeometry relative="1" as="geometry">
            <mxPoint x="80" y="50" as="sourcePoint" />
            <mxPoint x="150" y="110" as="targetPoint" />
            <Array as="points" />
          </mxGeometry>
        </mxCell>
        <mxCell id="RDEdlRMHV0isR1jpHi3N-24" value="n" style="endArrow=none;html=1;rounded=0;exitX=0.5;exitY=1;exitDx=0;exitDy=0;" parent="1" edge="1">
          <mxGeometry relative="1" as="geometry">
            <mxPoint x="149.5" y="170" as="sourcePoint" />
            <mxPoint x="149.5" y="200" as="targetPoint" />
            <Array as="points" />
          </mxGeometry>
        </mxCell>
        <mxCell id="RDEdlRMHV0isR1jpHi3N-25" value="收藏" style="shape=rhombus;perimeter=rhombusPerimeter;whiteSpace=wrap;html=1;align=center;" parent="1" vertex="1">
          <mxGeometry x="-50" y="270" width="120" height="60" as="geometry" />
        </mxCell>
        <mxCell id="RDEdlRMHV0isR1jpHi3N-26" value="会员" style="whiteSpace=wrap;html=1;align=center;" parent="1" vertex="1">
          <mxGeometry x="-200" y="200" width="100" height="40" as="geometry" />
        </mxCell>
        <mxCell id="RDEdlRMHV0isR1jpHi3N-32" value="n" style="endArrow=none;html=1;rounded=0;exitX=0.25;exitY=1;exitDx=0;exitDy=0;entryX=1;entryY=0.5;entryDx=0;entryDy=0;" parent="1" source="4BjCStXGe_NqK06q4r3H-1" target="RDEdlRMHV0isR1jpHi3N-25" edge="1">
          <mxGeometry relative="1" as="geometry">
            <mxPoint x="209.5" y="230" as="sourcePoint" />
            <mxPoint x="150" y="271" as="targetPoint" />
            <Array as="points" />
          </mxGeometry>
        </mxCell>
        <mxCell id="RDEdlRMHV0isR1jpHi3N-3" value="添加小节" style="shape=rhombus;perimeter=rhombusPerimeter;whiteSpace=wrap;html=1;align=center;" parent="1" vertex="1">
          <mxGeometry x="500" y="150" width="120" height="60" as="geometry" />
        </mxCell>
        <mxCell id="154kNdpuvYw8Ka5Lc-kW-4" value="购买" style="shape=rhombus;perimeter=rhombusPerimeter;whiteSpace=wrap;html=1;align=center;" parent="1" vertex="1">
          <mxGeometry x="-50" y="110" width="120" height="60" as="geometry" />
        </mxCell>
        <mxCell id="154kNdpuvYw8Ka5Lc-kW-8" value="n" style="endArrow=none;html=1;rounded=0;entryX=0.25;entryY=0;entryDx=0;entryDy=0;" parent="1" target="4BjCStXGe_NqK06q4r3H-1" edge="1">
          <mxGeometry relative="1" as="geometry">
            <mxPoint x="68" y="140" as="sourcePoint" />
            <mxPoint x="159.5" y="210" as="targetPoint" />
            <Array as="points" />
          </mxGeometry>
        </mxCell>
        <mxCell id="154kNdpuvYw8Ka5Lc-kW-9" value="评论" style="shape=rhombus;perimeter=rhombusPerimeter;whiteSpace=wrap;html=1;align=center;" parent="1" vertex="1">
          <mxGeometry x="-50" y="190" width="120" height="60" as="geometry" />
        </mxCell>
        <mxCell id="xwKpQ__oT_qKtOxIVh_8-1" value="m" style="endArrow=none;html=1;rounded=0;entryX=0;entryY=0.5;entryDx=0;entryDy=0;exitX=0.75;exitY=1;exitDx=0;exitDy=0;" parent="1" source="RDEdlRMHV0isR1jpHi3N-26" target="RDEdlRMHV0isR1jpHi3N-25" edge="1">
          <mxGeometry relative="1" as="geometry">
            <mxPoint x="60" y="300" as="sourcePoint" />
            <mxPoint x="117" y="360" as="targetPoint" />
            <Array as="points" />
          </mxGeometry>
        </mxCell>
        <mxCell id="xwKpQ__oT_qKtOxIVh_8-5" value="m" style="endArrow=none;html=1;rounded=0;exitX=1;exitY=0.5;exitDx=0;exitDy=0;entryX=0;entryY=0.5;entryDx=0;entryDy=0;" parent="1" source="RDEdlRMHV0isR1jpHi3N-26" target="154kNdpuvYw8Ka5Lc-kW-9" edge="1">
          <mxGeometry relative="1" as="geometry">
            <mxPoint x="-40" y="290" as="sourcePoint" />
            <mxPoint x="-30" y="270" as="targetPoint" />
            <Array as="points" />
          </mxGeometry>
        </mxCell>
        <mxCell id="xwKpQ__oT_qKtOxIVh_8-6" value="m" style="endArrow=none;html=1;rounded=0;entryX=0.5;entryY=1;entryDx=0;entryDy=0;" parent="1" source="RDEdlRMHV0isR1jpHi3N-26" edge="1">
          <mxGeometry relative="1" as="geometry">
            <mxPoint x="-165" y="170" as="sourcePoint" />
            <mxPoint x="-50" y="140" as="targetPoint" />
            <Array as="points" />
          </mxGeometry>
        </mxCell>
        <mxCell id="S-77-Lqj0SAQSqJ5whou-1" value="n" style="endArrow=none;html=1;rounded=0;exitX=0;exitY=0.5;exitDx=0;exitDy=0;entryX=1;entryY=0.5;entryDx=0;entryDy=0;" parent="1" source="4BjCStXGe_NqK06q4r3H-1" target="154kNdpuvYw8Ka5Lc-kW-9" edge="1">
          <mxGeometry relative="1" as="geometry">
            <mxPoint x="135" y="250" as="sourcePoint" />
            <mxPoint x="80" y="310" as="targetPoint" />
            <Array as="points" />
          </mxGeometry>
        </mxCell>
        <mxCell id="S-77-Lqj0SAQSqJ5whou-2" value="下单" style="shape=rhombus;perimeter=rhombusPerimeter;whiteSpace=wrap;html=1;align=center;" parent="1" vertex="1">
          <mxGeometry x="-210" y="110" width="120" height="60" as="geometry" />
        </mxCell>
        <mxCell id="S-77-Lqj0SAQSqJ5whou-3" value="订单" style="whiteSpace=wrap;html=1;align=center;" parent="1" vertex="1">
          <mxGeometry x="-200" y="40" width="100" height="40" as="geometry" />
        </mxCell>
        <mxCell id="S-77-Lqj0SAQSqJ5whou-5" value="1" style="endArrow=none;html=1;rounded=0;entryX=0.5;entryY=1;entryDx=0;entryDy=0;exitX=0.5;exitY=0;exitDx=0;exitDy=0;" parent="1" source="RDEdlRMHV0isR1jpHi3N-26" target="S-77-Lqj0SAQSqJ5whou-2" edge="1">
          <mxGeometry relative="1" as="geometry">
            <mxPoint x="-115" y="210" as="sourcePoint" />
            <mxPoint x="-40" y="150" as="targetPoint" />
            <Array as="points" />
          </mxGeometry>
        </mxCell>
        <mxCell id="S-77-Lqj0SAQSqJ5whou-6" value="n" style="endArrow=none;html=1;rounded=0;entryX=0.5;entryY=1;entryDx=0;entryDy=0;exitX=0.5;exitY=0;exitDx=0;exitDy=0;" parent="1" source="S-77-Lqj0SAQSqJ5whou-2" target="S-77-Lqj0SAQSqJ5whou-3" edge="1">
          <mxGeometry relative="1" as="geometry">
            <mxPoint x="-105" y="220" as="sourcePoint" />
            <mxPoint x="-30" y="160" as="targetPoint" />
            <Array as="points">
              <mxPoint x="-150" y="100" />
            </Array>
          </mxGeometry>
        </mxCell>
        <mxCell id="S-77-Lqj0SAQSqJ5whou-7" value="支付" style="shape=rhombus;perimeter=rhombusPerimeter;whiteSpace=wrap;html=1;align=center;" parent="1" vertex="1">
          <mxGeometry x="-210" y="270" width="120" height="60" as="geometry" />
        </mxCell>
        <mxCell id="S-77-Lqj0SAQSqJ5whou-8" value="支付日志表" style="whiteSpace=wrap;html=1;align=center;" parent="1" vertex="1">
          <mxGeometry x="-200" y="357" width="100" height="40" as="geometry" />
        </mxCell>
        <mxCell id="S-77-Lqj0SAQSqJ5whou-9" value="1" style="endArrow=none;html=1;rounded=0;entryX=0.5;entryY=1;entryDx=0;entryDy=0;exitX=0.5;exitY=0;exitDx=0;exitDy=0;" parent="1" source="S-77-Lqj0SAQSqJ5whou-7" target="RDEdlRMHV0isR1jpHi3N-26" edge="1">
          <mxGeometry relative="1" as="geometry">
            <mxPoint x="-140" y="210" as="sourcePoint" />
            <mxPoint x="-140" y="180" as="targetPoint" />
            <Array as="points" />
          </mxGeometry>
        </mxCell>
        <mxCell id="S-77-Lqj0SAQSqJ5whou-10" value="n" style="endArrow=none;html=1;rounded=0;entryX=0.5;entryY=1;entryDx=0;entryDy=0;exitX=0.5;exitY=0;exitDx=0;exitDy=0;" parent="1" source="S-77-Lqj0SAQSqJ5whou-8" target="S-77-Lqj0SAQSqJ5whou-7" edge="1">
          <mxGeometry relative="1" as="geometry">
            <mxPoint x="-100" y="350" as="sourcePoint" />
            <mxPoint x="-140" y="90" as="targetPoint" />
            <Array as="points" />
          </mxGeometry>
        </mxCell>
        <mxCell id="S-77-Lqj0SAQSqJ5whou-12" value="管理员" style="whiteSpace=wrap;html=1;align=center;" parent="1" vertex="1">
          <mxGeometry x="100" y="350" width="100" height="40" as="geometry" />
        </mxCell>
        <mxCell id="S-77-Lqj0SAQSqJ5whou-13" value="添加banner" style="shape=rhombus;perimeter=rhombusPerimeter;whiteSpace=wrap;html=1;align=center;" parent="1" vertex="1">
          <mxGeometry x="90" y="420" width="120" height="60" as="geometry" />
        </mxCell>
        <mxCell id="S-77-Lqj0SAQSqJ5whou-15" value="角色" style="whiteSpace=wrap;html=1;align=center;" parent="1" vertex="1">
          <mxGeometry x="250" y="430" width="100" height="40" as="geometry" />
        </mxCell>
        <mxCell id="S-77-Lqj0SAQSqJ5whou-16" value="分配权限" style="shape=rhombus;perimeter=rhombusPerimeter;whiteSpace=wrap;html=1;align=center;" parent="1" vertex="1">
          <mxGeometry x="380" y="420" width="120" height="60" as="geometry" />
        </mxCell>
        <mxCell id="S-77-Lqj0SAQSqJ5whou-17" value="菜单" style="whiteSpace=wrap;html=1;align=center;" parent="1" vertex="1">
          <mxGeometry x="390" y="350" width="100" height="40" as="geometry" />
        </mxCell>
        <mxCell id="S-77-Lqj0SAQSqJ5whou-18" value="分配角色" style="shape=rhombus;perimeter=rhombusPerimeter;whiteSpace=wrap;html=1;align=center;" parent="1" vertex="1">
          <mxGeometry x="240" y="340" width="120" height="60" as="geometry" />
        </mxCell>
        <mxCell id="DVc-VXhUHRnormNe8Hyd-6" style="edgeStyle=orthogonalEdgeStyle;rounded=0;orthogonalLoop=1;jettySize=auto;html=1;exitX=1;exitY=0.5;exitDx=0;exitDy=0;" parent="1" source="xw2x9PFPNTmoyKotWPnW-1" edge="1">
          <mxGeometry relative="1" as="geometry">
            <mxPoint x="70" y="370" as="targetPoint" />
          </mxGeometry>
        </mxCell>
        <mxCell id="xw2x9PFPNTmoyKotWPnW-1" value="统计" style="shape=rhombus;perimeter=rhombusPerimeter;whiteSpace=wrap;html=1;align=center;" parent="1" vertex="1">
          <mxGeometry x="-50" y="340" width="120" height="60" as="geometry" />
        </mxCell>
        <mxCell id="xw2x9PFPNTmoyKotWPnW-2" value="banner" style="whiteSpace=wrap;html=1;align=center;" parent="1" vertex="1">
          <mxGeometry x="-40" y="430" width="100" height="40" as="geometry" />
        </mxCell>
        <mxCell id="xw2x9PFPNTmoyKotWPnW-3" value="网站统计日数据" style="whiteSpace=wrap;html=1;align=center;" parent="1" vertex="1">
          <mxGeometry x="-200" y="430" width="100" height="40" as="geometry" />
        </mxCell>
        <mxCell id="DVc-VXhUHRnormNe8Hyd-1" value="n" style="endArrow=none;html=1;rounded=0;exitX=0;exitY=0.5;exitDx=0;exitDy=0;entryX=1;entryY=0;entryDx=0;entryDy=0;" parent="1" source="xw2x9PFPNTmoyKotWPnW-1" target="xw2x9PFPNTmoyKotWPnW-3" edge="1">
          <mxGeometry relative="1" as="geometry">
            <mxPoint x="-70" y="360" as="sourcePoint" />
            <mxPoint x="-90" y="440" as="targetPoint" />
            <Array as="points" />
          </mxGeometry>
        </mxCell>
        <mxCell id="DVc-VXhUHRnormNe8Hyd-4" value="n" style="endArrow=none;html=1;rounded=0;exitX=1;exitY=0.5;exitDx=0;exitDy=0;entryX=0;entryY=0.5;entryDx=0;entryDy=0;" parent="1" source="xw2x9PFPNTmoyKotWPnW-2" target="S-77-Lqj0SAQSqJ5whou-13" edge="1">
          <mxGeometry relative="1" as="geometry">
            <mxPoint x="25" y="390" as="sourcePoint" />
            <mxPoint x="80" y="420" as="targetPoint" />
            <Array as="points" />
          </mxGeometry>
        </mxCell>
        <mxCell id="DVc-VXhUHRnormNe8Hyd-5" value="1" style="endArrow=none;html=1;rounded=0;entryX=0;entryY=0.5;entryDx=0;entryDy=0;" parent="1" target="S-77-Lqj0SAQSqJ5whou-12" edge="1">
          <mxGeometry relative="1" as="geometry">
            <mxPoint x="70" y="370" as="sourcePoint" />
            <mxPoint x="135" y="430" as="targetPoint" />
            <Array as="points" />
          </mxGeometry>
        </mxCell>
        <mxCell id="DVc-VXhUHRnormNe8Hyd-7" value="1" style="endArrow=none;html=1;rounded=0;exitX=0.5;exitY=1;exitDx=0;exitDy=0;entryX=0.5;entryY=0;entryDx=0;entryDy=0;" parent="1" source="S-77-Lqj0SAQSqJ5whou-12" target="S-77-Lqj0SAQSqJ5whou-13" edge="1">
          <mxGeometry relative="1" as="geometry">
            <mxPoint x="145" y="390" as="sourcePoint" />
            <mxPoint x="210" y="450" as="targetPoint" />
            <Array as="points" />
          </mxGeometry>
        </mxCell>
        <mxCell id="DVc-VXhUHRnormNe8Hyd-9" value="n" style="endArrow=none;html=1;rounded=0;exitX=1;exitY=0.5;exitDx=0;exitDy=0;" parent="1" source="S-77-Lqj0SAQSqJ5whou-12" edge="1">
          <mxGeometry relative="1" as="geometry">
            <mxPoint x="172.5" y="430" as="sourcePoint" />
            <mxPoint x="240" y="370" as="targetPoint" />
            <Array as="points" />
          </mxGeometry>
        </mxCell>
        <mxCell id="DVc-VXhUHRnormNe8Hyd-10" value="n" style="endArrow=none;html=1;rounded=0;exitX=1;exitY=0.5;exitDx=0;exitDy=0;" parent="1" source="S-77-Lqj0SAQSqJ5whou-15" edge="1">
          <mxGeometry relative="1" as="geometry">
            <mxPoint x="312.5" y="510" as="sourcePoint" />
            <mxPoint x="380" y="450" as="targetPoint" />
            <Array as="points" />
          </mxGeometry>
        </mxCell>
        <mxCell id="DVc-VXhUHRnormNe8Hyd-11" value="m" style="endArrow=none;html=1;rounded=0;entryX=0.5;entryY=0;entryDx=0;entryDy=0;exitX=0.5;exitY=1;exitDx=0;exitDy=0;" parent="1" source="S-77-Lqj0SAQSqJ5whou-18" target="S-77-Lqj0SAQSqJ5whou-15" edge="1">
          <mxGeometry relative="1" as="geometry">
            <mxPoint x="300" y="400" as="sourcePoint" />
            <mxPoint x="375" y="460" as="targetPoint" />
            <Array as="points">
              <mxPoint x="300" y="410" />
            </Array>
          </mxGeometry>
        </mxCell>
        <mxCell id="DVc-VXhUHRnormNe8Hyd-14" value="m" style="endArrow=none;html=1;rounded=0;entryX=0.5;entryY=0;entryDx=0;entryDy=0;exitX=0.5;exitY=1;exitDx=0;exitDy=0;" parent="1" source="S-77-Lqj0SAQSqJ5whou-17" target="S-77-Lqj0SAQSqJ5whou-16" edge="1">
          <mxGeometry relative="1" as="geometry">
            <mxPoint x="490" y="410" as="sourcePoint" />
            <mxPoint x="510" y="450" as="targetPoint" />
            <Array as="points" />
          </mxGeometry>
        </mxCell>
      </root>
    </mxGraphModel>
  </diagram>
  <diagram id="OowB2TG8Y3pX8MgCZImw" name="实体及其属性">
    <mxGraphModel dx="888" dy="482" grid="1" gridSize="10" guides="1" tooltips="1" connect="1" arrows="1" fold="1" page="1" pageScale="1" pageWidth="827" pageHeight="1169" math="0" shadow="0">
      <root>
        <mxCell id="Sc9yQ6TO0yZFQ_2XBnEG-0" />
        <mxCell id="Sc9yQ6TO0yZFQ_2XBnEG-1" parent="Sc9yQ6TO0yZFQ_2XBnEG-0" />
        <mxCell id="T0EKI3D4WndZnFsNI5aN-1" value="课程" style="whiteSpace=wrap;html=1;align=center;" vertex="1" parent="Sc9yQ6TO0yZFQ_2XBnEG-1">
          <mxGeometry x="160" y="140" width="100" height="40" as="geometry" />
        </mxCell>
        <mxCell id="T0EKI3D4WndZnFsNI5aN-8" value="专业父级ID" style="ellipse;whiteSpace=wrap;html=1;align=center;" vertex="1" parent="Sc9yQ6TO0yZFQ_2XBnEG-1">
          <mxGeometry x="330" y="40" width="100" height="40" as="geometry" />
        </mxCell>
        <mxCell id="T0EKI3D4WndZnFsNI5aN-9" value="课程标题" style="ellipse;whiteSpace=wrap;html=1;align=center;" vertex="1" parent="Sc9yQ6TO0yZFQ_2XBnEG-1">
          <mxGeometry x="330" y="90" width="100" height="40" as="geometry" />
        </mxCell>
        <mxCell id="T0EKI3D4WndZnFsNI5aN-10" value="课程价格" style="ellipse;whiteSpace=wrap;html=1;align=center;" vertex="1" parent="Sc9yQ6TO0yZFQ_2XBnEG-1">
          <mxGeometry x="330" y="140" width="100" height="40" as="geometry" />
        </mxCell>
        <mxCell id="T0EKI3D4WndZnFsNI5aN-11" value="总课时" style="ellipse;whiteSpace=wrap;html=1;align=center;" vertex="1" parent="Sc9yQ6TO0yZFQ_2XBnEG-1">
          <mxGeometry x="330" y="190" width="100" height="40" as="geometry" />
        </mxCell>
        <mxCell id="T0EKI3D4WndZnFsNI5aN-12" value="销售数量" style="ellipse;whiteSpace=wrap;html=1;align=center;" vertex="1" parent="Sc9yQ6TO0yZFQ_2XBnEG-1">
          <mxGeometry x="220" y="240" width="100" height="40" as="geometry" />
        </mxCell>
        <mxCell id="T0EKI3D4WndZnFsNI5aN-13" value="浏览数量&amp;nbsp;" style="ellipse;whiteSpace=wrap;html=1;align=center;" vertex="1" parent="Sc9yQ6TO0yZFQ_2XBnEG-1">
          <mxGeometry x="110" y="240" width="100" height="40" as="geometry" />
        </mxCell>
        <mxCell id="T0EKI3D4WndZnFsNI5aN-14" value="&lt;div&gt;创建时间&lt;/div&gt;" style="ellipse;whiteSpace=wrap;html=1;align=center;" vertex="1" parent="Sc9yQ6TO0yZFQ_2XBnEG-1">
          <mxGeometry y="190" width="100" height="40" as="geometry" />
        </mxCell>
        <mxCell id="T0EKI3D4WndZnFsNI5aN-15" value="更新时间" style="ellipse;whiteSpace=wrap;html=1;align=center;" vertex="1" parent="Sc9yQ6TO0yZFQ_2XBnEG-1">
          <mxGeometry y="140" width="100" height="40" as="geometry" />
        </mxCell>
        <mxCell id="T0EKI3D4WndZnFsNI5aN-16" value="逻辑删除&amp;nbsp;" style="ellipse;whiteSpace=wrap;html=1;align=center;" vertex="1" parent="Sc9yQ6TO0yZFQ_2XBnEG-1">
          <mxGeometry y="90" width="100" height="40" as="geometry" />
        </mxCell>
        <mxCell id="T0EKI3D4WndZnFsNI5aN-17" value="&lt;font face=&quot;verdana, arial, helvetica, sans-serif&quot;&gt;&lt;span style=&quot;font-size: 12.96px&quot;&gt;课程ID&lt;/span&gt;&lt;/font&gt;" style="ellipse;whiteSpace=wrap;html=1;align=center;" vertex="1" parent="Sc9yQ6TO0yZFQ_2XBnEG-1">
          <mxGeometry y="40" width="100" height="40" as="geometry" />
        </mxCell>
        <mxCell id="T0EKI3D4WndZnFsNI5aN-18" value="专业ID" style="ellipse;whiteSpace=wrap;html=1;align=center;" vertex="1" parent="Sc9yQ6TO0yZFQ_2XBnEG-1">
          <mxGeometry x="110" y="40" width="100" height="40" as="geometry" />
        </mxCell>
        <mxCell id="T0EKI3D4WndZnFsNI5aN-19" value="&lt;div&gt;讲师ID&amp;nbsp;&lt;/div&gt;" style="ellipse;whiteSpace=wrap;html=1;align=center;" vertex="1" parent="Sc9yQ6TO0yZFQ_2XBnEG-1">
          <mxGeometry x="220" y="40" width="100" height="40" as="geometry" />
        </mxCell>
        <mxCell id="T0EKI3D4WndZnFsNI5aN-21" value="课程封面" style="ellipse;whiteSpace=wrap;html=1;align=center;" vertex="1" parent="Sc9yQ6TO0yZFQ_2XBnEG-1">
          <mxGeometry x="330" y="240" width="100" height="40" as="geometry" />
        </mxCell>
        <mxCell id="T0EKI3D4WndZnFsNI5aN-22" value="课程状态&amp;nbsp;" style="ellipse;whiteSpace=wrap;html=1;align=center;" vertex="1" parent="Sc9yQ6TO0yZFQ_2XBnEG-1">
          <mxGeometry y="240" width="100" height="40" as="geometry" />
        </mxCell>
        <mxCell id="T0EKI3D4WndZnFsNI5aN-23" value="" style="endArrow=none;html=1;rounded=0;exitX=0;exitY=0;exitDx=0;exitDy=0;" edge="1" parent="Sc9yQ6TO0yZFQ_2XBnEG-1" source="T0EKI3D4WndZnFsNI5aN-1" target="T0EKI3D4WndZnFsNI5aN-17">
          <mxGeometry relative="1" as="geometry">
            <mxPoint x="130" y="100" as="sourcePoint" />
            <mxPoint x="290" y="100" as="targetPoint" />
          </mxGeometry>
        </mxCell>
        <mxCell id="T0EKI3D4WndZnFsNI5aN-24" value="" style="endArrow=none;html=1;rounded=0;" edge="1" parent="Sc9yQ6TO0yZFQ_2XBnEG-1">
          <mxGeometry relative="1" as="geometry">
            <mxPoint x="160" y="160" as="sourcePoint" />
            <mxPoint x="90" y="123" as="targetPoint" />
          </mxGeometry>
        </mxCell>
        <mxCell id="T0EKI3D4WndZnFsNI5aN-25" value="" style="endArrow=none;html=1;rounded=0;exitX=0;exitY=0.75;exitDx=0;exitDy=0;" edge="1" parent="Sc9yQ6TO0yZFQ_2XBnEG-1" source="T0EKI3D4WndZnFsNI5aN-1">
          <mxGeometry relative="1" as="geometry">
            <mxPoint x="185.9" y="222.48" as="sourcePoint" />
            <mxPoint x="99.9959374886088" y="160.00431817353373" as="targetPoint" />
          </mxGeometry>
        </mxCell>
        <mxCell id="T0EKI3D4WndZnFsNI5aN-26" value="" style="endArrow=none;html=1;rounded=0;exitX=0;exitY=1;exitDx=0;exitDy=0;entryX=1;entryY=0.5;entryDx=0;entryDy=0;" edge="1" parent="Sc9yQ6TO0yZFQ_2XBnEG-1" source="T0EKI3D4WndZnFsNI5aN-1" target="T0EKI3D4WndZnFsNI5aN-14">
          <mxGeometry relative="1" as="geometry">
            <mxPoint x="170" y="180" as="sourcePoint" />
            <mxPoint x="90" y="202" as="targetPoint" />
          </mxGeometry>
        </mxCell>
        <mxCell id="T0EKI3D4WndZnFsNI5aN-27" value="" style="endArrow=none;html=1;rounded=0;exitX=0.1;exitY=1;exitDx=0;exitDy=0;exitPerimeter=0;" edge="1" parent="Sc9yQ6TO0yZFQ_2XBnEG-1" source="T0EKI3D4WndZnFsNI5aN-1" target="T0EKI3D4WndZnFsNI5aN-22">
          <mxGeometry relative="1" as="geometry">
            <mxPoint x="180" y="190" as="sourcePoint" />
            <mxPoint x="119.99593748860877" y="180.00431817353376" as="targetPoint" />
          </mxGeometry>
        </mxCell>
        <mxCell id="T0EKI3D4WndZnFsNI5aN-28" value="" style="endArrow=none;html=1;rounded=0;exitX=0.25;exitY=1;exitDx=0;exitDy=0;entryX=0.5;entryY=0;entryDx=0;entryDy=0;" edge="1" parent="Sc9yQ6TO0yZFQ_2XBnEG-1" source="T0EKI3D4WndZnFsNI5aN-1" target="T0EKI3D4WndZnFsNI5aN-13">
          <mxGeometry relative="1" as="geometry">
            <mxPoint x="180" y="190" as="sourcePoint" />
            <mxPoint x="85.72478777137599" y="252.85014148574942" as="targetPoint" />
          </mxGeometry>
        </mxCell>
        <mxCell id="T0EKI3D4WndZnFsNI5aN-29" value="" style="endArrow=none;html=1;rounded=0;exitX=0.5;exitY=1;exitDx=0;exitDy=0;entryX=0;entryY=0;entryDx=0;entryDy=0;" edge="1" parent="Sc9yQ6TO0yZFQ_2XBnEG-1" source="T0EKI3D4WndZnFsNI5aN-1" target="T0EKI3D4WndZnFsNI5aN-12">
          <mxGeometry relative="1" as="geometry">
            <mxPoint x="234.28" y="178.57" as="sourcePoint" />
            <mxPoint x="140.004787771376" y="241.4201414857494" as="targetPoint" />
          </mxGeometry>
        </mxCell>
        <mxCell id="T0EKI3D4WndZnFsNI5aN-30" value="" style="endArrow=none;html=1;rounded=0;exitX=0.5;exitY=1;exitDx=0;exitDy=0;" edge="1" parent="Sc9yQ6TO0yZFQ_2XBnEG-1">
          <mxGeometry relative="1" as="geometry">
            <mxPoint x="240" y="180" as="sourcePoint" />
            <mxPoint x="340" y="247" as="targetPoint" />
          </mxGeometry>
        </mxCell>
        <mxCell id="T0EKI3D4WndZnFsNI5aN-31" value="" style="endArrow=none;html=1;rounded=0;exitX=0.5;exitY=1;exitDx=0;exitDy=0;entryX=0.03;entryY=0.25;entryDx=0;entryDy=0;entryPerimeter=0;" edge="1" parent="Sc9yQ6TO0yZFQ_2XBnEG-1" target="T0EKI3D4WndZnFsNI5aN-11">
          <mxGeometry relative="1" as="geometry">
            <mxPoint x="260" y="163" as="sourcePoint" />
            <mxPoint x="360" y="230" as="targetPoint" />
          </mxGeometry>
        </mxCell>
        <mxCell id="T0EKI3D4WndZnFsNI5aN-32" value="" style="endArrow=none;html=1;rounded=0;exitX=0.5;exitY=1;exitDx=0;exitDy=0;entryX=0;entryY=0.5;entryDx=0;entryDy=0;" edge="1" parent="Sc9yQ6TO0yZFQ_2XBnEG-1" target="T0EKI3D4WndZnFsNI5aN-10">
          <mxGeometry relative="1" as="geometry">
            <mxPoint x="260" y="150" as="sourcePoint" />
            <mxPoint x="360" y="217" as="targetPoint" />
          </mxGeometry>
        </mxCell>
        <mxCell id="T0EKI3D4WndZnFsNI5aN-33" value="" style="endArrow=none;html=1;rounded=0;exitX=0.5;exitY=1;exitDx=0;exitDy=0;" edge="1" parent="Sc9yQ6TO0yZFQ_2XBnEG-1">
          <mxGeometry relative="1" as="geometry">
            <mxPoint x="260" y="140" as="sourcePoint" />
            <mxPoint x="340" y="122" as="targetPoint" />
          </mxGeometry>
        </mxCell>
        <mxCell id="T0EKI3D4WndZnFsNI5aN-34" value="" style="endArrow=none;html=1;rounded=0;" edge="1" parent="Sc9yQ6TO0yZFQ_2XBnEG-1">
          <mxGeometry relative="1" as="geometry">
            <mxPoint x="250" y="140" as="sourcePoint" />
            <mxPoint x="353" y="74" as="targetPoint" />
          </mxGeometry>
        </mxCell>
        <mxCell id="T0EKI3D4WndZnFsNI5aN-35" value="" style="endArrow=none;html=1;rounded=0;entryX=0.23;entryY=0.85;entryDx=0;entryDy=0;entryPerimeter=0;exitX=0.75;exitY=0;exitDx=0;exitDy=0;" edge="1" parent="Sc9yQ6TO0yZFQ_2XBnEG-1" source="T0EKI3D4WndZnFsNI5aN-1">
          <mxGeometry relative="1" as="geometry">
            <mxPoint x="170" y="146" as="sourcePoint" />
            <mxPoint x="273" y="80" as="targetPoint" />
          </mxGeometry>
        </mxCell>
        <mxCell id="T0EKI3D4WndZnFsNI5aN-36" value="" style="endArrow=none;html=1;rounded=0;exitX=0.5;exitY=1;exitDx=0;exitDy=0;" edge="1" parent="Sc9yQ6TO0yZFQ_2XBnEG-1">
          <mxGeometry relative="1" as="geometry">
            <mxPoint x="170" y="80" as="sourcePoint" />
            <mxPoint x="195" y="140" as="targetPoint" />
          </mxGeometry>
        </mxCell>
        <mxCell id="T0EKI3D4WndZnFsNI5aN-37" value="讲师" style="whiteSpace=wrap;html=1;align=center;" vertex="1" parent="Sc9yQ6TO0yZFQ_2XBnEG-1">
          <mxGeometry x="600" y="140" width="100" height="40" as="geometry" />
        </mxCell>
        <mxCell id="T0EKI3D4WndZnFsNI5aN-39" value="排序" style="ellipse;whiteSpace=wrap;html=1;align=center;" vertex="1" parent="Sc9yQ6TO0yZFQ_2XBnEG-1">
          <mxGeometry x="770" y="90" width="100" height="40" as="geometry" />
        </mxCell>
        <mxCell id="T0EKI3D4WndZnFsNI5aN-40" value="&lt;font face=&quot;verdana, arial, helvetica, sans-serif&quot;&gt;&lt;span style=&quot;font-size: 12.96px&quot;&gt;讲师资历&lt;/span&gt;&lt;/font&gt;" style="ellipse;whiteSpace=wrap;html=1;align=center;" vertex="1" parent="Sc9yQ6TO0yZFQ_2XBnEG-1">
          <mxGeometry x="770" y="140" width="100" height="40" as="geometry" />
        </mxCell>
        <mxCell id="T0EKI3D4WndZnFsNI5aN-41" value="&lt;span style=&quot;font-family: &amp;#34;verdana&amp;#34; , &amp;#34;arial&amp;#34; , &amp;#34;helvetica&amp;#34; , sans-serif ; font-size: 12.96px&quot;&gt;讲师ID&lt;/span&gt;" style="ellipse;whiteSpace=wrap;html=1;align=center;" vertex="1" parent="Sc9yQ6TO0yZFQ_2XBnEG-1">
          <mxGeometry x="770" y="190" width="100" height="40" as="geometry" />
        </mxCell>
        <mxCell id="T0EKI3D4WndZnFsNI5aN-42" value="讲师头像" style="ellipse;whiteSpace=wrap;html=1;align=center;" vertex="1" parent="Sc9yQ6TO0yZFQ_2XBnEG-1">
          <mxGeometry x="660" y="240" width="100" height="40" as="geometry" />
        </mxCell>
        <mxCell id="T0EKI3D4WndZnFsNI5aN-43" value="&lt;span style=&quot;background-color: rgb(255 , 255 , 255)&quot;&gt;&lt;font face=&quot;verdana, arial, helvetica, sans-serif&quot;&gt;&lt;span style=&quot;font-size: 12.96px&quot;&gt;讲师头衔&lt;/span&gt;&lt;/font&gt;&lt;/span&gt;" style="ellipse;whiteSpace=wrap;html=1;align=center;" vertex="1" parent="Sc9yQ6TO0yZFQ_2XBnEG-1">
          <mxGeometry x="550" y="240" width="100" height="40" as="geometry" />
        </mxCell>
        <mxCell id="T0EKI3D4WndZnFsNI5aN-44" value="&lt;div&gt;创建时间&lt;/div&gt;" style="ellipse;whiteSpace=wrap;html=1;align=center;" vertex="1" parent="Sc9yQ6TO0yZFQ_2XBnEG-1">
          <mxGeometry x="440" y="190" width="100" height="40" as="geometry" />
        </mxCell>
        <mxCell id="T0EKI3D4WndZnFsNI5aN-45" value="更新时间" style="ellipse;whiteSpace=wrap;html=1;align=center;" vertex="1" parent="Sc9yQ6TO0yZFQ_2XBnEG-1">
          <mxGeometry x="440" y="140" width="100" height="40" as="geometry" />
        </mxCell>
        <mxCell id="T0EKI3D4WndZnFsNI5aN-46" value="逻辑删除&amp;nbsp;" style="ellipse;whiteSpace=wrap;html=1;align=center;" vertex="1" parent="Sc9yQ6TO0yZFQ_2XBnEG-1">
          <mxGeometry x="440" y="90" width="100" height="40" as="geometry" />
        </mxCell>
        <mxCell id="T0EKI3D4WndZnFsNI5aN-48" value="讲师姓名" style="ellipse;whiteSpace=wrap;html=1;align=center;" vertex="1" parent="Sc9yQ6TO0yZFQ_2XBnEG-1">
          <mxGeometry x="550" y="40" width="100" height="40" as="geometry" />
        </mxCell>
        <mxCell id="T0EKI3D4WndZnFsNI5aN-49" value="&lt;div&gt;讲师简介&lt;/div&gt;" style="ellipse;whiteSpace=wrap;html=1;align=center;" vertex="1" parent="Sc9yQ6TO0yZFQ_2XBnEG-1">
          <mxGeometry x="660" y="40" width="100" height="40" as="geometry" />
        </mxCell>
        <mxCell id="T0EKI3D4WndZnFsNI5aN-53" value="" style="endArrow=none;html=1;rounded=0;" edge="1" parent="Sc9yQ6TO0yZFQ_2XBnEG-1">
          <mxGeometry relative="1" as="geometry">
            <mxPoint x="600" y="160" as="sourcePoint" />
            <mxPoint x="530" y="123" as="targetPoint" />
          </mxGeometry>
        </mxCell>
        <mxCell id="T0EKI3D4WndZnFsNI5aN-54" value="" style="endArrow=none;html=1;rounded=0;exitX=0;exitY=0.75;exitDx=0;exitDy=0;" edge="1" source="T0EKI3D4WndZnFsNI5aN-37" parent="Sc9yQ6TO0yZFQ_2XBnEG-1">
          <mxGeometry relative="1" as="geometry">
            <mxPoint x="625.9" y="222.48" as="sourcePoint" />
            <mxPoint x="539.9959374886088" y="160.00431817353376" as="targetPoint" />
          </mxGeometry>
        </mxCell>
        <mxCell id="T0EKI3D4WndZnFsNI5aN-55" value="" style="endArrow=none;html=1;rounded=0;exitX=0;exitY=1;exitDx=0;exitDy=0;entryX=1;entryY=0.5;entryDx=0;entryDy=0;" edge="1" source="T0EKI3D4WndZnFsNI5aN-37" target="T0EKI3D4WndZnFsNI5aN-44" parent="Sc9yQ6TO0yZFQ_2XBnEG-1">
          <mxGeometry relative="1" as="geometry">
            <mxPoint x="610" y="180" as="sourcePoint" />
            <mxPoint x="530" y="202" as="targetPoint" />
          </mxGeometry>
        </mxCell>
        <mxCell id="T0EKI3D4WndZnFsNI5aN-57" value="" style="endArrow=none;html=1;rounded=0;exitX=0.25;exitY=1;exitDx=0;exitDy=0;entryX=0.5;entryY=0;entryDx=0;entryDy=0;" edge="1" source="T0EKI3D4WndZnFsNI5aN-37" target="T0EKI3D4WndZnFsNI5aN-43" parent="Sc9yQ6TO0yZFQ_2XBnEG-1">
          <mxGeometry relative="1" as="geometry">
            <mxPoint x="620" y="190" as="sourcePoint" />
            <mxPoint x="525.724787771376" y="252.85014148574942" as="targetPoint" />
          </mxGeometry>
        </mxCell>
        <mxCell id="T0EKI3D4WndZnFsNI5aN-58" value="" style="endArrow=none;html=1;rounded=0;exitX=0.5;exitY=1;exitDx=0;exitDy=0;entryX=0;entryY=0;entryDx=0;entryDy=0;" edge="1" source="T0EKI3D4WndZnFsNI5aN-37" target="T0EKI3D4WndZnFsNI5aN-42" parent="Sc9yQ6TO0yZFQ_2XBnEG-1">
          <mxGeometry relative="1" as="geometry">
            <mxPoint x="674.28" y="178.57" as="sourcePoint" />
            <mxPoint x="580.004787771376" y="241.4201414857494" as="targetPoint" />
          </mxGeometry>
        </mxCell>
        <mxCell id="T0EKI3D4WndZnFsNI5aN-60" value="" style="endArrow=none;html=1;rounded=0;exitX=0.5;exitY=1;exitDx=0;exitDy=0;entryX=0.03;entryY=0.25;entryDx=0;entryDy=0;entryPerimeter=0;" edge="1" target="T0EKI3D4WndZnFsNI5aN-41" parent="Sc9yQ6TO0yZFQ_2XBnEG-1">
          <mxGeometry relative="1" as="geometry">
            <mxPoint x="700" y="163" as="sourcePoint" />
            <mxPoint x="800" y="230" as="targetPoint" />
          </mxGeometry>
        </mxCell>
        <mxCell id="T0EKI3D4WndZnFsNI5aN-61" value="" style="endArrow=none;html=1;rounded=0;exitX=0.5;exitY=1;exitDx=0;exitDy=0;entryX=0;entryY=0.5;entryDx=0;entryDy=0;" edge="1" target="T0EKI3D4WndZnFsNI5aN-40" parent="Sc9yQ6TO0yZFQ_2XBnEG-1">
          <mxGeometry relative="1" as="geometry">
            <mxPoint x="700" y="150" as="sourcePoint" />
            <mxPoint x="800" y="217" as="targetPoint" />
          </mxGeometry>
        </mxCell>
        <mxCell id="T0EKI3D4WndZnFsNI5aN-62" value="" style="endArrow=none;html=1;rounded=0;exitX=0.5;exitY=1;exitDx=0;exitDy=0;" edge="1" parent="Sc9yQ6TO0yZFQ_2XBnEG-1">
          <mxGeometry relative="1" as="geometry">
            <mxPoint x="700" y="140" as="sourcePoint" />
            <mxPoint x="780" y="122" as="targetPoint" />
          </mxGeometry>
        </mxCell>
        <mxCell id="T0EKI3D4WndZnFsNI5aN-64" value="" style="endArrow=none;html=1;rounded=0;entryX=0.23;entryY=0.85;entryDx=0;entryDy=0;entryPerimeter=0;exitX=0.75;exitY=0;exitDx=0;exitDy=0;" edge="1" source="T0EKI3D4WndZnFsNI5aN-37" parent="Sc9yQ6TO0yZFQ_2XBnEG-1">
          <mxGeometry relative="1" as="geometry">
            <mxPoint x="610" y="146" as="sourcePoint" />
            <mxPoint x="713" y="80" as="targetPoint" />
          </mxGeometry>
        </mxCell>
        <mxCell id="T0EKI3D4WndZnFsNI5aN-65" value="" style="endArrow=none;html=1;rounded=0;exitX=0.5;exitY=1;exitDx=0;exitDy=0;" edge="1" parent="Sc9yQ6TO0yZFQ_2XBnEG-1">
          <mxGeometry relative="1" as="geometry">
            <mxPoint x="610" y="80" as="sourcePoint" />
            <mxPoint x="635" y="140" as="targetPoint" />
          </mxGeometry>
        </mxCell>
        <mxCell id="T0EKI3D4WndZnFsNI5aN-67" value="课程评论" style="whiteSpace=wrap;html=1;align=center;" vertex="1" parent="Sc9yQ6TO0yZFQ_2XBnEG-1">
          <mxGeometry x="1060" y="110" width="100" height="40" as="geometry" />
        </mxCell>
        <mxCell id="T0EKI3D4WndZnFsNI5aN-68" value="讲师ID" style="ellipse;whiteSpace=wrap;html=1;align=center;" vertex="1" parent="Sc9yQ6TO0yZFQ_2XBnEG-1">
          <mxGeometry x="1230" y="60" width="100" height="40" as="geometry" />
        </mxCell>
        <mxCell id="T0EKI3D4WndZnFsNI5aN-69" value="&lt;font face=&quot;verdana, arial, helvetica, sans-serif&quot;&gt;&lt;span style=&quot;font-size: 12.96px&quot;&gt;会员ID&lt;/span&gt;&lt;/font&gt;" style="ellipse;whiteSpace=wrap;html=1;align=center;" vertex="1" parent="Sc9yQ6TO0yZFQ_2XBnEG-1">
          <mxGeometry x="1230" y="110" width="100" height="40" as="geometry" />
        </mxCell>
        <mxCell id="T0EKI3D4WndZnFsNI5aN-71" value="创建时间" style="ellipse;whiteSpace=wrap;html=1;align=center;" vertex="1" parent="Sc9yQ6TO0yZFQ_2XBnEG-1">
          <mxGeometry x="1110" y="170" width="100" height="40" as="geometry" />
        </mxCell>
        <mxCell id="T0EKI3D4WndZnFsNI5aN-72" value="&lt;font face=&quot;verdana, arial, helvetica, sans-serif&quot;&gt;&lt;span style=&quot;font-size: 12.96px&quot;&gt;评论内容&lt;/span&gt;&lt;/font&gt;" style="ellipse;whiteSpace=wrap;html=1;align=center;" vertex="1" parent="Sc9yQ6TO0yZFQ_2XBnEG-1">
          <mxGeometry x="1005" y="170" width="100" height="40" as="geometry" />
        </mxCell>
        <mxCell id="T0EKI3D4WndZnFsNI5aN-74" value="更新时间" style="ellipse;whiteSpace=wrap;html=1;align=center;" vertex="1" parent="Sc9yQ6TO0yZFQ_2XBnEG-1">
          <mxGeometry x="900" y="110" width="100" height="40" as="geometry" />
        </mxCell>
        <mxCell id="T0EKI3D4WndZnFsNI5aN-75" value="逻辑删除&amp;nbsp;" style="ellipse;whiteSpace=wrap;html=1;align=center;" vertex="1" parent="Sc9yQ6TO0yZFQ_2XBnEG-1">
          <mxGeometry x="900" y="60" width="100" height="40" as="geometry" />
        </mxCell>
        <mxCell id="T0EKI3D4WndZnFsNI5aN-76" value="&lt;span style=&quot;font-family: &amp;#34;verdana&amp;#34; , &amp;#34;arial&amp;#34; , &amp;#34;helvetica&amp;#34; , sans-serif ; font-size: 12.96px ; background-color: rgb(255 , 255 , 255)&quot;&gt;评论ID&lt;/span&gt;" style="ellipse;whiteSpace=wrap;html=1;align=center;" vertex="1" parent="Sc9yQ6TO0yZFQ_2XBnEG-1">
          <mxGeometry x="1020" y="40" width="100" height="40" as="geometry" />
        </mxCell>
        <mxCell id="T0EKI3D4WndZnFsNI5aN-77" value="&lt;div&gt;课程ID&lt;/div&gt;" style="ellipse;whiteSpace=wrap;html=1;align=center;" vertex="1" parent="Sc9yQ6TO0yZFQ_2XBnEG-1">
          <mxGeometry x="1125" y="40" width="100" height="40" as="geometry" />
        </mxCell>
        <mxCell id="T0EKI3D4WndZnFsNI5aN-78" value="" style="endArrow=none;html=1;rounded=0;" edge="1" parent="Sc9yQ6TO0yZFQ_2XBnEG-1">
          <mxGeometry relative="1" as="geometry">
            <mxPoint x="1060" y="130" as="sourcePoint" />
            <mxPoint x="990" y="93" as="targetPoint" />
          </mxGeometry>
        </mxCell>
        <mxCell id="T0EKI3D4WndZnFsNI5aN-79" value="" style="endArrow=none;html=1;rounded=0;exitX=0;exitY=0.75;exitDx=0;exitDy=0;" edge="1" source="T0EKI3D4WndZnFsNI5aN-67" parent="Sc9yQ6TO0yZFQ_2XBnEG-1">
          <mxGeometry relative="1" as="geometry">
            <mxPoint x="1085.9" y="192.48000000000002" as="sourcePoint" />
            <mxPoint x="999.9959374886089" y="130.00431817353376" as="targetPoint" />
          </mxGeometry>
        </mxCell>
        <mxCell id="T0EKI3D4WndZnFsNI5aN-81" value="" style="endArrow=none;html=1;rounded=0;exitX=0.25;exitY=1;exitDx=0;exitDy=0;" edge="1" source="T0EKI3D4WndZnFsNI5aN-67" parent="Sc9yQ6TO0yZFQ_2XBnEG-1">
          <mxGeometry relative="1" as="geometry">
            <mxPoint x="1080" y="160" as="sourcePoint" />
            <mxPoint x="1075" y="170" as="targetPoint" />
          </mxGeometry>
        </mxCell>
        <mxCell id="T0EKI3D4WndZnFsNI5aN-84" value="" style="endArrow=none;html=1;rounded=0;exitX=0.5;exitY=1;exitDx=0;exitDy=0;entryX=0;entryY=0.5;entryDx=0;entryDy=0;" edge="1" target="T0EKI3D4WndZnFsNI5aN-69" parent="Sc9yQ6TO0yZFQ_2XBnEG-1">
          <mxGeometry relative="1" as="geometry">
            <mxPoint x="1160" y="120" as="sourcePoint" />
            <mxPoint x="1260" y="187" as="targetPoint" />
          </mxGeometry>
        </mxCell>
        <mxCell id="T0EKI3D4WndZnFsNI5aN-85" value="" style="endArrow=none;html=1;rounded=0;exitX=0.5;exitY=1;exitDx=0;exitDy=0;" edge="1" parent="Sc9yQ6TO0yZFQ_2XBnEG-1">
          <mxGeometry relative="1" as="geometry">
            <mxPoint x="1160" y="110" as="sourcePoint" />
            <mxPoint x="1235" y="92" as="targetPoint" />
          </mxGeometry>
        </mxCell>
        <mxCell id="T0EKI3D4WndZnFsNI5aN-86" value="" style="endArrow=none;html=1;rounded=0;exitX=0.75;exitY=0;exitDx=0;exitDy=0;" edge="1" source="T0EKI3D4WndZnFsNI5aN-67" parent="Sc9yQ6TO0yZFQ_2XBnEG-1">
          <mxGeometry relative="1" as="geometry">
            <mxPoint x="1070" y="116" as="sourcePoint" />
            <mxPoint x="1155" y="80" as="targetPoint" />
          </mxGeometry>
        </mxCell>
        <mxCell id="T0EKI3D4WndZnFsNI5aN-87" value="" style="endArrow=none;html=1;rounded=0;" edge="1" parent="Sc9yQ6TO0yZFQ_2XBnEG-1">
          <mxGeometry relative="1" as="geometry">
            <mxPoint x="1085" y="80" as="sourcePoint" />
            <mxPoint x="1095" y="110" as="targetPoint" />
          </mxGeometry>
        </mxCell>
        <mxCell id="T0EKI3D4WndZnFsNI5aN-88" value="课程小节" style="whiteSpace=wrap;html=1;align=center;" vertex="1" parent="Sc9yQ6TO0yZFQ_2XBnEG-1">
          <mxGeometry x="160" y="400" width="100" height="40" as="geometry" />
        </mxCell>
        <mxCell id="T0EKI3D4WndZnFsNI5aN-89" value="节点名称" style="ellipse;whiteSpace=wrap;html=1;align=center;" vertex="1" parent="Sc9yQ6TO0yZFQ_2XBnEG-1">
          <mxGeometry x="330" y="300" width="100" height="40" as="geometry" />
        </mxCell>
        <mxCell id="T0EKI3D4WndZnFsNI5aN-90" value="云端视频资源" style="ellipse;whiteSpace=wrap;html=1;align=center;" vertex="1" parent="Sc9yQ6TO0yZFQ_2XBnEG-1">
          <mxGeometry x="330" y="350" width="100" height="40" as="geometry" />
        </mxCell>
        <mxCell id="T0EKI3D4WndZnFsNI5aN-91" value="原始文件名称" style="ellipse;whiteSpace=wrap;html=1;align=center;" vertex="1" parent="Sc9yQ6TO0yZFQ_2XBnEG-1">
          <mxGeometry x="330" y="400" width="100" height="40" as="geometry" />
        </mxCell>
        <mxCell id="T0EKI3D4WndZnFsNI5aN-92" value="排序" style="ellipse;whiteSpace=wrap;html=1;align=center;" vertex="1" parent="Sc9yQ6TO0yZFQ_2XBnEG-1">
          <mxGeometry x="330" y="450" width="100" height="40" as="geometry" />
        </mxCell>
        <mxCell id="T0EKI3D4WndZnFsNI5aN-93" value="是否可以试听&amp;nbsp;" style="ellipse;whiteSpace=wrap;html=1;align=center;" vertex="1" parent="Sc9yQ6TO0yZFQ_2XBnEG-1">
          <mxGeometry x="220" y="500" width="100" height="40" as="geometry" />
        </mxCell>
        <mxCell id="T0EKI3D4WndZnFsNI5aN-94" value="视频时长" style="ellipse;whiteSpace=wrap;html=1;align=center;" vertex="1" parent="Sc9yQ6TO0yZFQ_2XBnEG-1">
          <mxGeometry x="110" y="500" width="100" height="40" as="geometry" />
        </mxCell>
        <mxCell id="T0EKI3D4WndZnFsNI5aN-95" value="&lt;div&gt;创建时间&lt;/div&gt;" style="ellipse;whiteSpace=wrap;html=1;align=center;" vertex="1" parent="Sc9yQ6TO0yZFQ_2XBnEG-1">
          <mxGeometry y="450" width="100" height="40" as="geometry" />
        </mxCell>
        <mxCell id="T0EKI3D4WndZnFsNI5aN-96" value="更新时间" style="ellipse;whiteSpace=wrap;html=1;align=center;" vertex="1" parent="Sc9yQ6TO0yZFQ_2XBnEG-1">
          <mxGeometry y="400" width="100" height="40" as="geometry" />
        </mxCell>
        <mxCell id="T0EKI3D4WndZnFsNI5aN-97" value="视频文件大小&amp;nbsp;" style="ellipse;whiteSpace=wrap;html=1;align=center;" vertex="1" parent="Sc9yQ6TO0yZFQ_2XBnEG-1">
          <mxGeometry y="350" width="100" height="40" as="geometry" />
        </mxCell>
        <mxCell id="T0EKI3D4WndZnFsNI5aN-98" value="&lt;font face=&quot;verdana, arial, helvetica, sans-serif&quot;&gt;&lt;span style=&quot;font-size: 12.96px&quot;&gt;视频ID&lt;/span&gt;&lt;/font&gt;" style="ellipse;whiteSpace=wrap;html=1;align=center;" vertex="1" parent="Sc9yQ6TO0yZFQ_2XBnEG-1">
          <mxGeometry y="300" width="100" height="40" as="geometry" />
        </mxCell>
        <mxCell id="T0EKI3D4WndZnFsNI5aN-99" value="课程ID" style="ellipse;whiteSpace=wrap;html=1;align=center;" vertex="1" parent="Sc9yQ6TO0yZFQ_2XBnEG-1">
          <mxGeometry x="110" y="300" width="100" height="40" as="geometry" />
        </mxCell>
        <mxCell id="T0EKI3D4WndZnFsNI5aN-100" value="&lt;div&gt;章节ID&lt;/div&gt;" style="ellipse;whiteSpace=wrap;html=1;align=center;" vertex="1" parent="Sc9yQ6TO0yZFQ_2XBnEG-1">
          <mxGeometry x="220" y="300" width="100" height="40" as="geometry" />
        </mxCell>
        <mxCell id="T0EKI3D4WndZnFsNI5aN-101" value="&lt;span style=&quot;font-family: &amp;#34;verdana&amp;#34; , &amp;#34;arial&amp;#34; , &amp;#34;helvetica&amp;#34; , sans-serif ; font-size: 12.96px ; background-color: rgb(245 , 245 , 245)&quot;&gt;播放次数&lt;/span&gt;" style="ellipse;whiteSpace=wrap;html=1;align=center;" vertex="1" parent="Sc9yQ6TO0yZFQ_2XBnEG-1">
          <mxGeometry x="330" y="500" width="100" height="40" as="geometry" />
        </mxCell>
        <mxCell id="T0EKI3D4WndZnFsNI5aN-102" value="视频状态" style="ellipse;whiteSpace=wrap;html=1;align=center;" vertex="1" parent="Sc9yQ6TO0yZFQ_2XBnEG-1">
          <mxGeometry y="500" width="100" height="40" as="geometry" />
        </mxCell>
        <mxCell id="T0EKI3D4WndZnFsNI5aN-103" value="" style="endArrow=none;html=1;rounded=0;exitX=0;exitY=0;exitDx=0;exitDy=0;" edge="1" source="T0EKI3D4WndZnFsNI5aN-88" target="T0EKI3D4WndZnFsNI5aN-98" parent="Sc9yQ6TO0yZFQ_2XBnEG-1">
          <mxGeometry relative="1" as="geometry">
            <mxPoint x="130" y="360" as="sourcePoint" />
            <mxPoint x="290" y="360" as="targetPoint" />
          </mxGeometry>
        </mxCell>
        <mxCell id="T0EKI3D4WndZnFsNI5aN-104" value="" style="endArrow=none;html=1;rounded=0;" edge="1" parent="Sc9yQ6TO0yZFQ_2XBnEG-1">
          <mxGeometry relative="1" as="geometry">
            <mxPoint x="160" y="420" as="sourcePoint" />
            <mxPoint x="90" y="383" as="targetPoint" />
          </mxGeometry>
        </mxCell>
        <mxCell id="T0EKI3D4WndZnFsNI5aN-105" value="" style="endArrow=none;html=1;rounded=0;exitX=0;exitY=0.75;exitDx=0;exitDy=0;" edge="1" source="T0EKI3D4WndZnFsNI5aN-88" parent="Sc9yQ6TO0yZFQ_2XBnEG-1">
          <mxGeometry relative="1" as="geometry">
            <mxPoint x="185.9" y="482.48" as="sourcePoint" />
            <mxPoint x="99.99593748860877" y="420.00431817353376" as="targetPoint" />
          </mxGeometry>
        </mxCell>
        <mxCell id="T0EKI3D4WndZnFsNI5aN-106" value="" style="endArrow=none;html=1;rounded=0;exitX=0;exitY=1;exitDx=0;exitDy=0;entryX=1;entryY=0.5;entryDx=0;entryDy=0;" edge="1" source="T0EKI3D4WndZnFsNI5aN-88" target="T0EKI3D4WndZnFsNI5aN-95" parent="Sc9yQ6TO0yZFQ_2XBnEG-1">
          <mxGeometry relative="1" as="geometry">
            <mxPoint x="170" y="440" as="sourcePoint" />
            <mxPoint x="90" y="462" as="targetPoint" />
          </mxGeometry>
        </mxCell>
        <mxCell id="T0EKI3D4WndZnFsNI5aN-107" value="" style="endArrow=none;html=1;rounded=0;exitX=0.1;exitY=1;exitDx=0;exitDy=0;exitPerimeter=0;" edge="1" source="T0EKI3D4WndZnFsNI5aN-88" target="T0EKI3D4WndZnFsNI5aN-102" parent="Sc9yQ6TO0yZFQ_2XBnEG-1">
          <mxGeometry relative="1" as="geometry">
            <mxPoint x="180" y="450" as="sourcePoint" />
            <mxPoint x="119.99593748860877" y="440.00431817353376" as="targetPoint" />
          </mxGeometry>
        </mxCell>
        <mxCell id="T0EKI3D4WndZnFsNI5aN-108" value="" style="endArrow=none;html=1;rounded=0;exitX=0.25;exitY=1;exitDx=0;exitDy=0;entryX=0.5;entryY=0;entryDx=0;entryDy=0;" edge="1" source="T0EKI3D4WndZnFsNI5aN-88" target="T0EKI3D4WndZnFsNI5aN-94" parent="Sc9yQ6TO0yZFQ_2XBnEG-1">
          <mxGeometry relative="1" as="geometry">
            <mxPoint x="180" y="450" as="sourcePoint" />
            <mxPoint x="85.72478777137599" y="512.8501414857494" as="targetPoint" />
          </mxGeometry>
        </mxCell>
        <mxCell id="T0EKI3D4WndZnFsNI5aN-109" value="" style="endArrow=none;html=1;rounded=0;exitX=0.5;exitY=1;exitDx=0;exitDy=0;entryX=0;entryY=0;entryDx=0;entryDy=0;" edge="1" source="T0EKI3D4WndZnFsNI5aN-88" target="T0EKI3D4WndZnFsNI5aN-93" parent="Sc9yQ6TO0yZFQ_2XBnEG-1">
          <mxGeometry relative="1" as="geometry">
            <mxPoint x="234.28" y="438.57" as="sourcePoint" />
            <mxPoint x="140.004787771376" y="501.4201414857494" as="targetPoint" />
          </mxGeometry>
        </mxCell>
        <mxCell id="T0EKI3D4WndZnFsNI5aN-110" value="" style="endArrow=none;html=1;rounded=0;exitX=0.5;exitY=1;exitDx=0;exitDy=0;" edge="1" parent="Sc9yQ6TO0yZFQ_2XBnEG-1">
          <mxGeometry relative="1" as="geometry">
            <mxPoint x="240" y="440" as="sourcePoint" />
            <mxPoint x="340" y="507" as="targetPoint" />
          </mxGeometry>
        </mxCell>
        <mxCell id="T0EKI3D4WndZnFsNI5aN-111" value="" style="endArrow=none;html=1;rounded=0;exitX=0.5;exitY=1;exitDx=0;exitDy=0;entryX=0.03;entryY=0.25;entryDx=0;entryDy=0;entryPerimeter=0;" edge="1" target="T0EKI3D4WndZnFsNI5aN-92" parent="Sc9yQ6TO0yZFQ_2XBnEG-1">
          <mxGeometry relative="1" as="geometry">
            <mxPoint x="260" y="423" as="sourcePoint" />
            <mxPoint x="360" y="490" as="targetPoint" />
          </mxGeometry>
        </mxCell>
        <mxCell id="T0EKI3D4WndZnFsNI5aN-112" value="" style="endArrow=none;html=1;rounded=0;exitX=0.5;exitY=1;exitDx=0;exitDy=0;entryX=0;entryY=0.5;entryDx=0;entryDy=0;" edge="1" target="T0EKI3D4WndZnFsNI5aN-91" parent="Sc9yQ6TO0yZFQ_2XBnEG-1">
          <mxGeometry relative="1" as="geometry">
            <mxPoint x="260" y="410" as="sourcePoint" />
            <mxPoint x="360" y="477" as="targetPoint" />
          </mxGeometry>
        </mxCell>
        <mxCell id="T0EKI3D4WndZnFsNI5aN-113" value="" style="endArrow=none;html=1;rounded=0;exitX=0.5;exitY=1;exitDx=0;exitDy=0;entryX=0;entryY=0.8;entryDx=0;entryDy=0;entryPerimeter=0;" edge="1" target="T0EKI3D4WndZnFsNI5aN-90" parent="Sc9yQ6TO0yZFQ_2XBnEG-1">
          <mxGeometry relative="1" as="geometry">
            <mxPoint x="260" y="400" as="sourcePoint" />
            <mxPoint x="360" y="467" as="targetPoint" />
          </mxGeometry>
        </mxCell>
        <mxCell id="T0EKI3D4WndZnFsNI5aN-114" value="" style="endArrow=none;html=1;rounded=0;" edge="1" parent="Sc9yQ6TO0yZFQ_2XBnEG-1">
          <mxGeometry relative="1" as="geometry">
            <mxPoint x="250" y="400" as="sourcePoint" />
            <mxPoint x="353" y="334" as="targetPoint" />
          </mxGeometry>
        </mxCell>
        <mxCell id="T0EKI3D4WndZnFsNI5aN-115" value="" style="endArrow=none;html=1;rounded=0;entryX=0.23;entryY=0.85;entryDx=0;entryDy=0;entryPerimeter=0;exitX=0.75;exitY=0;exitDx=0;exitDy=0;" edge="1" source="T0EKI3D4WndZnFsNI5aN-88" parent="Sc9yQ6TO0yZFQ_2XBnEG-1">
          <mxGeometry relative="1" as="geometry">
            <mxPoint x="170" y="406" as="sourcePoint" />
            <mxPoint x="273" y="340" as="targetPoint" />
          </mxGeometry>
        </mxCell>
        <mxCell id="T0EKI3D4WndZnFsNI5aN-116" value="" style="endArrow=none;html=1;rounded=0;exitX=0.5;exitY=1;exitDx=0;exitDy=0;" edge="1" parent="Sc9yQ6TO0yZFQ_2XBnEG-1">
          <mxGeometry relative="1" as="geometry">
            <mxPoint x="170" y="340" as="sourcePoint" />
            <mxPoint x="195" y="400" as="targetPoint" />
          </mxGeometry>
        </mxCell>
        <mxCell id="QEEeFV-9qL2b_EY3cjki-35" value="" style="endArrow=none;html=1;rounded=0;entryX=0;entryY=0;entryDx=0;entryDy=0;exitX=0.5;exitY=1;exitDx=0;exitDy=0;" edge="1" parent="Sc9yQ6TO0yZFQ_2XBnEG-1" source="T0EKI3D4WndZnFsNI5aN-67" target="T0EKI3D4WndZnFsNI5aN-71">
          <mxGeometry relative="1" as="geometry">
            <mxPoint x="1120" y="150" as="sourcePoint" />
            <mxPoint x="1135" y="170" as="targetPoint" />
          </mxGeometry>
        </mxCell>
        <mxCell id="QEEeFV-9qL2b_EY3cjki-36" value="订单" style="whiteSpace=wrap;html=1;align=center;" vertex="1" parent="Sc9yQ6TO0yZFQ_2XBnEG-1">
          <mxGeometry x="1060" y="290" width="100" height="40" as="geometry" />
        </mxCell>
        <mxCell id="QEEeFV-9qL2b_EY3cjki-37" value="课程ID" style="ellipse;whiteSpace=wrap;html=1;align=center;" vertex="1" parent="Sc9yQ6TO0yZFQ_2XBnEG-1">
          <mxGeometry x="1229" y="240" width="100" height="40" as="geometry" />
        </mxCell>
        <mxCell id="QEEeFV-9qL2b_EY3cjki-38" value="&lt;font face=&quot;verdana, arial, helvetica, sans-serif&quot;&gt;&lt;span style=&quot;font-size: 12.96px&quot;&gt;会员ID&lt;/span&gt;&lt;/font&gt;" style="ellipse;whiteSpace=wrap;html=1;align=center;" vertex="1" parent="Sc9yQ6TO0yZFQ_2XBnEG-1">
          <mxGeometry x="1230" y="290" width="100" height="40" as="geometry" />
        </mxCell>
        <mxCell id="QEEeFV-9qL2b_EY3cjki-39" value="订单状态" style="ellipse;whiteSpace=wrap;html=1;align=center;" vertex="1" parent="Sc9yQ6TO0yZFQ_2XBnEG-1">
          <mxGeometry x="1110" y="350" width="100" height="40" as="geometry" />
        </mxCell>
        <mxCell id="QEEeFV-9qL2b_EY3cjki-40" value="&lt;font face=&quot;verdana, arial, helvetica, sans-serif&quot;&gt;&lt;span style=&quot;font-size: 12.96px&quot;&gt;订单金额&lt;/span&gt;&lt;/font&gt;" style="ellipse;whiteSpace=wrap;html=1;align=center;" vertex="1" parent="Sc9yQ6TO0yZFQ_2XBnEG-1">
          <mxGeometry x="1005" y="350" width="100" height="40" as="geometry" />
        </mxCell>
        <mxCell id="QEEeFV-9qL2b_EY3cjki-41" value="更新时间" style="ellipse;whiteSpace=wrap;html=1;align=center;" vertex="1" parent="Sc9yQ6TO0yZFQ_2XBnEG-1">
          <mxGeometry x="900" y="290" width="100" height="40" as="geometry" />
        </mxCell>
        <mxCell id="QEEeFV-9qL2b_EY3cjki-42" value="逻辑删除&amp;nbsp;" style="ellipse;whiteSpace=wrap;html=1;align=center;" vertex="1" parent="Sc9yQ6TO0yZFQ_2XBnEG-1">
          <mxGeometry x="900" y="240" width="100" height="40" as="geometry" />
        </mxCell>
        <mxCell id="QEEeFV-9qL2b_EY3cjki-43" value="&lt;font face=&quot;verdana, arial, helvetica, sans-serif&quot;&gt;&lt;span style=&quot;font-size: 12.96px&quot;&gt;主键&lt;/span&gt;&lt;/font&gt;" style="ellipse;whiteSpace=wrap;html=1;align=center;" vertex="1" parent="Sc9yQ6TO0yZFQ_2XBnEG-1">
          <mxGeometry x="1020" y="220" width="100" height="40" as="geometry" />
        </mxCell>
        <mxCell id="QEEeFV-9qL2b_EY3cjki-44" value="&lt;div&gt;订单号&lt;/div&gt;" style="ellipse;whiteSpace=wrap;html=1;align=center;" vertex="1" parent="Sc9yQ6TO0yZFQ_2XBnEG-1">
          <mxGeometry x="1125" y="220" width="100" height="40" as="geometry" />
        </mxCell>
        <mxCell id="QEEeFV-9qL2b_EY3cjki-45" value="" style="endArrow=none;html=1;rounded=0;" edge="1" parent="Sc9yQ6TO0yZFQ_2XBnEG-1">
          <mxGeometry relative="1" as="geometry">
            <mxPoint x="1060" y="310" as="sourcePoint" />
            <mxPoint x="990" y="273" as="targetPoint" />
          </mxGeometry>
        </mxCell>
        <mxCell id="QEEeFV-9qL2b_EY3cjki-46" value="" style="endArrow=none;html=1;rounded=0;exitX=0;exitY=0.75;exitDx=0;exitDy=0;" edge="1" source="QEEeFV-9qL2b_EY3cjki-36" parent="Sc9yQ6TO0yZFQ_2XBnEG-1">
          <mxGeometry relative="1" as="geometry">
            <mxPoint x="1085.9" y="372.48" as="sourcePoint" />
            <mxPoint x="999.9959374886089" y="310.00431817353376" as="targetPoint" />
          </mxGeometry>
        </mxCell>
        <mxCell id="QEEeFV-9qL2b_EY3cjki-47" value="" style="endArrow=none;html=1;rounded=0;exitX=0.25;exitY=1;exitDx=0;exitDy=0;" edge="1" source="QEEeFV-9qL2b_EY3cjki-36" parent="Sc9yQ6TO0yZFQ_2XBnEG-1">
          <mxGeometry relative="1" as="geometry">
            <mxPoint x="1080" y="340" as="sourcePoint" />
            <mxPoint x="1075" y="350" as="targetPoint" />
          </mxGeometry>
        </mxCell>
        <mxCell id="QEEeFV-9qL2b_EY3cjki-48" value="" style="endArrow=none;html=1;rounded=0;exitX=0.5;exitY=1;exitDx=0;exitDy=0;entryX=0;entryY=0.5;entryDx=0;entryDy=0;" edge="1" target="QEEeFV-9qL2b_EY3cjki-38" parent="Sc9yQ6TO0yZFQ_2XBnEG-1">
          <mxGeometry relative="1" as="geometry">
            <mxPoint x="1160" y="300" as="sourcePoint" />
            <mxPoint x="1260" y="367" as="targetPoint" />
          </mxGeometry>
        </mxCell>
        <mxCell id="QEEeFV-9qL2b_EY3cjki-49" value="" style="endArrow=none;html=1;rounded=0;exitX=0.5;exitY=1;exitDx=0;exitDy=0;" edge="1" parent="Sc9yQ6TO0yZFQ_2XBnEG-1">
          <mxGeometry relative="1" as="geometry">
            <mxPoint x="1160" y="290" as="sourcePoint" />
            <mxPoint x="1235" y="272" as="targetPoint" />
          </mxGeometry>
        </mxCell>
        <mxCell id="QEEeFV-9qL2b_EY3cjki-50" value="" style="endArrow=none;html=1;rounded=0;exitX=0.75;exitY=0;exitDx=0;exitDy=0;" edge="1" source="QEEeFV-9qL2b_EY3cjki-36" parent="Sc9yQ6TO0yZFQ_2XBnEG-1">
          <mxGeometry relative="1" as="geometry">
            <mxPoint x="1070" y="296" as="sourcePoint" />
            <mxPoint x="1155" y="260" as="targetPoint" />
          </mxGeometry>
        </mxCell>
        <mxCell id="QEEeFV-9qL2b_EY3cjki-51" value="" style="endArrow=none;html=1;rounded=0;" edge="1" parent="Sc9yQ6TO0yZFQ_2XBnEG-1">
          <mxGeometry relative="1" as="geometry">
            <mxPoint x="1085" y="260" as="sourcePoint" />
            <mxPoint x="1095" y="290" as="targetPoint" />
          </mxGeometry>
        </mxCell>
        <mxCell id="QEEeFV-9qL2b_EY3cjki-52" value="" style="endArrow=none;html=1;rounded=0;entryX=0;entryY=0;entryDx=0;entryDy=0;exitX=0.5;exitY=1;exitDx=0;exitDy=0;" edge="1" source="QEEeFV-9qL2b_EY3cjki-36" target="QEEeFV-9qL2b_EY3cjki-39" parent="Sc9yQ6TO0yZFQ_2XBnEG-1">
          <mxGeometry relative="1" as="geometry">
            <mxPoint x="1120" y="330" as="sourcePoint" />
            <mxPoint x="1135" y="350" as="targetPoint" />
          </mxGeometry>
        </mxCell>
        <mxCell id="QEEeFV-9qL2b_EY3cjki-53" value="&lt;font face=&quot;verdana, arial, helvetica, sans-serif&quot;&gt;&lt;span style=&quot;font-size: 12.96px&quot;&gt;支付类型&lt;/span&gt;&lt;/font&gt;" style="ellipse;whiteSpace=wrap;html=1;align=center;" vertex="1" parent="Sc9yQ6TO0yZFQ_2XBnEG-1">
          <mxGeometry x="1230" y="340" width="100" height="40" as="geometry" />
        </mxCell>
        <mxCell id="QEEeFV-9qL2b_EY3cjki-54" value="创建时间" style="ellipse;whiteSpace=wrap;html=1;align=center;" vertex="1" parent="Sc9yQ6TO0yZFQ_2XBnEG-1">
          <mxGeometry x="900" y="340" width="100" height="40" as="geometry" />
        </mxCell>
        <mxCell id="QEEeFV-9qL2b_EY3cjki-55" value="" style="endArrow=none;html=1;rounded=0;exitX=0;exitY=1;exitDx=0;exitDy=0;entryX=0.99;entryY=0.3;entryDx=0;entryDy=0;entryPerimeter=0;" edge="1" parent="Sc9yQ6TO0yZFQ_2XBnEG-1" source="QEEeFV-9qL2b_EY3cjki-36" target="QEEeFV-9qL2b_EY3cjki-54">
          <mxGeometry relative="1" as="geometry">
            <mxPoint x="1070" y="330" as="sourcePoint" />
            <mxPoint x="1009.9959374886089" y="320.00431817353365" as="targetPoint" />
          </mxGeometry>
        </mxCell>
        <mxCell id="QEEeFV-9qL2b_EY3cjki-56" value="" style="endArrow=none;html=1;rounded=0;entryX=0;entryY=0.5;entryDx=0;entryDy=0;" edge="1" parent="Sc9yQ6TO0yZFQ_2XBnEG-1" target="QEEeFV-9qL2b_EY3cjki-53">
          <mxGeometry relative="1" as="geometry">
            <mxPoint x="1165" y="330" as="sourcePoint" />
            <mxPoint x="1240" y="320" as="targetPoint" />
          </mxGeometry>
        </mxCell>
        <mxCell id="QEEeFV-9qL2b_EY3cjki-57" value="支付日志" style="whiteSpace=wrap;html=1;align=center;" vertex="1" parent="Sc9yQ6TO0yZFQ_2XBnEG-1">
          <mxGeometry x="1520" y="280" width="100" height="40" as="geometry" />
        </mxCell>
        <mxCell id="QEEeFV-9qL2b_EY3cjki-58" value="支付完成时间&amp;nbsp;" style="ellipse;whiteSpace=wrap;html=1;align=center;" vertex="1" parent="Sc9yQ6TO0yZFQ_2XBnEG-1">
          <mxGeometry x="1689" y="230" width="100" height="40" as="geometry" />
        </mxCell>
        <mxCell id="QEEeFV-9qL2b_EY3cjki-59" value="&lt;font face=&quot;verdana, arial, helvetica, sans-serif&quot;&gt;&lt;span style=&quot;font-size: 12.96px&quot;&gt;支付金额&lt;/span&gt;&lt;/font&gt;" style="ellipse;whiteSpace=wrap;html=1;align=center;" vertex="1" parent="Sc9yQ6TO0yZFQ_2XBnEG-1">
          <mxGeometry x="1690" y="280" width="100" height="40" as="geometry" />
        </mxCell>
        <mxCell id="QEEeFV-9qL2b_EY3cjki-60" value="交易流水号" style="ellipse;whiteSpace=wrap;html=1;align=center;" vertex="1" parent="Sc9yQ6TO0yZFQ_2XBnEG-1">
          <mxGeometry x="1570" y="340" width="100" height="40" as="geometry" />
        </mxCell>
        <mxCell id="QEEeFV-9qL2b_EY3cjki-61" value="&lt;font face=&quot;verdana, arial, helvetica, sans-serif&quot;&gt;&lt;span style=&quot;font-size: 12.96px&quot;&gt;交易状态&lt;/span&gt;&lt;/font&gt;" style="ellipse;whiteSpace=wrap;html=1;align=center;" vertex="1" parent="Sc9yQ6TO0yZFQ_2XBnEG-1">
          <mxGeometry x="1465" y="340" width="100" height="40" as="geometry" />
        </mxCell>
        <mxCell id="QEEeFV-9qL2b_EY3cjki-62" value="更新时间" style="ellipse;whiteSpace=wrap;html=1;align=center;" vertex="1" parent="Sc9yQ6TO0yZFQ_2XBnEG-1">
          <mxGeometry x="1360" y="280" width="100" height="40" as="geometry" />
        </mxCell>
        <mxCell id="QEEeFV-9qL2b_EY3cjki-63" value="逻辑删除&amp;nbsp;" style="ellipse;whiteSpace=wrap;html=1;align=center;" vertex="1" parent="Sc9yQ6TO0yZFQ_2XBnEG-1">
          <mxGeometry x="1360" y="230" width="100" height="40" as="geometry" />
        </mxCell>
        <mxCell id="QEEeFV-9qL2b_EY3cjki-64" value="&lt;font face=&quot;verdana, arial, helvetica, sans-serif&quot;&gt;&lt;span style=&quot;font-size: 12.96px&quot;&gt;主键&lt;/span&gt;&lt;/font&gt;" style="ellipse;whiteSpace=wrap;html=1;align=center;" vertex="1" parent="Sc9yQ6TO0yZFQ_2XBnEG-1">
          <mxGeometry x="1480" y="210" width="100" height="40" as="geometry" />
        </mxCell>
        <mxCell id="QEEeFV-9qL2b_EY3cjki-65" value="&lt;div&gt;订单号&lt;/div&gt;" style="ellipse;whiteSpace=wrap;html=1;align=center;" vertex="1" parent="Sc9yQ6TO0yZFQ_2XBnEG-1">
          <mxGeometry x="1585" y="210" width="100" height="40" as="geometry" />
        </mxCell>
        <mxCell id="QEEeFV-9qL2b_EY3cjki-66" value="" style="endArrow=none;html=1;rounded=0;" edge="1" parent="Sc9yQ6TO0yZFQ_2XBnEG-1">
          <mxGeometry relative="1" as="geometry">
            <mxPoint x="1520" y="300" as="sourcePoint" />
            <mxPoint x="1450" y="263" as="targetPoint" />
          </mxGeometry>
        </mxCell>
        <mxCell id="QEEeFV-9qL2b_EY3cjki-67" value="" style="endArrow=none;html=1;rounded=0;exitX=0;exitY=0.75;exitDx=0;exitDy=0;" edge="1" source="QEEeFV-9qL2b_EY3cjki-57" parent="Sc9yQ6TO0yZFQ_2XBnEG-1">
          <mxGeometry relative="1" as="geometry">
            <mxPoint x="1545.9" y="362.48" as="sourcePoint" />
            <mxPoint x="1459.995937488609" y="300.00431817353365" as="targetPoint" />
          </mxGeometry>
        </mxCell>
        <mxCell id="QEEeFV-9qL2b_EY3cjki-68" value="" style="endArrow=none;html=1;rounded=0;exitX=0.25;exitY=1;exitDx=0;exitDy=0;" edge="1" source="QEEeFV-9qL2b_EY3cjki-57" parent="Sc9yQ6TO0yZFQ_2XBnEG-1">
          <mxGeometry relative="1" as="geometry">
            <mxPoint x="1540" y="330" as="sourcePoint" />
            <mxPoint x="1535" y="340" as="targetPoint" />
          </mxGeometry>
        </mxCell>
        <mxCell id="QEEeFV-9qL2b_EY3cjki-69" value="" style="endArrow=none;html=1;rounded=0;exitX=0.5;exitY=1;exitDx=0;exitDy=0;entryX=0;entryY=0.5;entryDx=0;entryDy=0;" edge="1" target="QEEeFV-9qL2b_EY3cjki-59" parent="Sc9yQ6TO0yZFQ_2XBnEG-1">
          <mxGeometry relative="1" as="geometry">
            <mxPoint x="1620" y="290" as="sourcePoint" />
            <mxPoint x="1720" y="357" as="targetPoint" />
          </mxGeometry>
        </mxCell>
        <mxCell id="QEEeFV-9qL2b_EY3cjki-70" value="" style="endArrow=none;html=1;rounded=0;exitX=0.5;exitY=1;exitDx=0;exitDy=0;" edge="1" parent="Sc9yQ6TO0yZFQ_2XBnEG-1">
          <mxGeometry relative="1" as="geometry">
            <mxPoint x="1620" y="280" as="sourcePoint" />
            <mxPoint x="1695" y="262" as="targetPoint" />
          </mxGeometry>
        </mxCell>
        <mxCell id="QEEeFV-9qL2b_EY3cjki-71" value="" style="endArrow=none;html=1;rounded=0;exitX=0.75;exitY=0;exitDx=0;exitDy=0;" edge="1" source="QEEeFV-9qL2b_EY3cjki-57" parent="Sc9yQ6TO0yZFQ_2XBnEG-1">
          <mxGeometry relative="1" as="geometry">
            <mxPoint x="1530" y="286" as="sourcePoint" />
            <mxPoint x="1615" y="250" as="targetPoint" />
          </mxGeometry>
        </mxCell>
        <mxCell id="QEEeFV-9qL2b_EY3cjki-72" value="" style="endArrow=none;html=1;rounded=0;" edge="1" parent="Sc9yQ6TO0yZFQ_2XBnEG-1">
          <mxGeometry relative="1" as="geometry">
            <mxPoint x="1545" y="250" as="sourcePoint" />
            <mxPoint x="1555" y="280" as="targetPoint" />
          </mxGeometry>
        </mxCell>
        <mxCell id="QEEeFV-9qL2b_EY3cjki-73" value="" style="endArrow=none;html=1;rounded=0;entryX=0;entryY=0;entryDx=0;entryDy=0;exitX=0.5;exitY=1;exitDx=0;exitDy=0;" edge="1" source="QEEeFV-9qL2b_EY3cjki-57" target="QEEeFV-9qL2b_EY3cjki-60" parent="Sc9yQ6TO0yZFQ_2XBnEG-1">
          <mxGeometry relative="1" as="geometry">
            <mxPoint x="1580" y="320" as="sourcePoint" />
            <mxPoint x="1595" y="340" as="targetPoint" />
          </mxGeometry>
        </mxCell>
        <mxCell id="QEEeFV-9qL2b_EY3cjki-74" value="&lt;font face=&quot;verdana, arial, helvetica, sans-serif&quot;&gt;&lt;span style=&quot;font-size: 12.96px&quot;&gt;支付类型&lt;/span&gt;&lt;/font&gt;" style="ellipse;whiteSpace=wrap;html=1;align=center;" vertex="1" parent="Sc9yQ6TO0yZFQ_2XBnEG-1">
          <mxGeometry x="1690" y="330" width="100" height="40" as="geometry" />
        </mxCell>
        <mxCell id="QEEeFV-9qL2b_EY3cjki-75" value="创建时间" style="ellipse;whiteSpace=wrap;html=1;align=center;" vertex="1" parent="Sc9yQ6TO0yZFQ_2XBnEG-1">
          <mxGeometry x="1360" y="330" width="100" height="40" as="geometry" />
        </mxCell>
        <mxCell id="QEEeFV-9qL2b_EY3cjki-76" value="" style="endArrow=none;html=1;rounded=0;exitX=0;exitY=1;exitDx=0;exitDy=0;entryX=0.99;entryY=0.3;entryDx=0;entryDy=0;entryPerimeter=0;" edge="1" source="QEEeFV-9qL2b_EY3cjki-57" target="QEEeFV-9qL2b_EY3cjki-75" parent="Sc9yQ6TO0yZFQ_2XBnEG-1">
          <mxGeometry relative="1" as="geometry">
            <mxPoint x="1530" y="320" as="sourcePoint" />
            <mxPoint x="1469.995937488609" y="310.00431817353365" as="targetPoint" />
          </mxGeometry>
        </mxCell>
        <mxCell id="QEEeFV-9qL2b_EY3cjki-77" value="" style="endArrow=none;html=1;rounded=0;entryX=0;entryY=0.5;entryDx=0;entryDy=0;" edge="1" target="QEEeFV-9qL2b_EY3cjki-74" parent="Sc9yQ6TO0yZFQ_2XBnEG-1">
          <mxGeometry relative="1" as="geometry">
            <mxPoint x="1625" y="320" as="sourcePoint" />
            <mxPoint x="1700" y="310" as="targetPoint" />
          </mxGeometry>
        </mxCell>
        <mxCell id="QEEeFV-9qL2b_EY3cjki-79" value="会员" style="whiteSpace=wrap;html=1;align=center;" vertex="1" parent="Sc9yQ6TO0yZFQ_2XBnEG-1">
          <mxGeometry x="600" y="400" width="100" height="40" as="geometry" />
        </mxCell>
        <mxCell id="QEEeFV-9qL2b_EY3cjki-80" value="密码" style="ellipse;whiteSpace=wrap;html=1;align=center;" vertex="1" parent="Sc9yQ6TO0yZFQ_2XBnEG-1">
          <mxGeometry x="770" y="300" width="100" height="40" as="geometry" />
        </mxCell>
        <mxCell id="QEEeFV-9qL2b_EY3cjki-81" value="昵称" style="ellipse;whiteSpace=wrap;html=1;align=center;" vertex="1" parent="Sc9yQ6TO0yZFQ_2XBnEG-1">
          <mxGeometry x="770" y="350" width="100" height="40" as="geometry" />
        </mxCell>
        <mxCell id="QEEeFV-9qL2b_EY3cjki-82" value="性别" style="ellipse;whiteSpace=wrap;html=1;align=center;" vertex="1" parent="Sc9yQ6TO0yZFQ_2XBnEG-1">
          <mxGeometry x="770" y="400" width="100" height="40" as="geometry" />
        </mxCell>
        <mxCell id="QEEeFV-9qL2b_EY3cjki-83" value="会员头像" style="ellipse;whiteSpace=wrap;html=1;align=center;" vertex="1" parent="Sc9yQ6TO0yZFQ_2XBnEG-1">
          <mxGeometry x="770" y="450" width="100" height="40" as="geometry" />
        </mxCell>
        <mxCell id="QEEeFV-9qL2b_EY3cjki-85" value="年龄" style="ellipse;whiteSpace=wrap;html=1;align=center;" vertex="1" parent="Sc9yQ6TO0yZFQ_2XBnEG-1">
          <mxGeometry x="590" y="500" width="100" height="40" as="geometry" />
        </mxCell>
        <mxCell id="QEEeFV-9qL2b_EY3cjki-86" value="&lt;div&gt;创建时间&lt;/div&gt;" style="ellipse;whiteSpace=wrap;html=1;align=center;" vertex="1" parent="Sc9yQ6TO0yZFQ_2XBnEG-1">
          <mxGeometry x="440" y="450" width="100" height="40" as="geometry" />
        </mxCell>
        <mxCell id="QEEeFV-9qL2b_EY3cjki-87" value="更新时间" style="ellipse;whiteSpace=wrap;html=1;align=center;" vertex="1" parent="Sc9yQ6TO0yZFQ_2XBnEG-1">
          <mxGeometry x="440" y="400" width="100" height="40" as="geometry" />
        </mxCell>
        <mxCell id="QEEeFV-9qL2b_EY3cjki-88" value="是否禁用" style="ellipse;whiteSpace=wrap;html=1;align=center;" vertex="1" parent="Sc9yQ6TO0yZFQ_2XBnEG-1">
          <mxGeometry x="440" y="350" width="100" height="40" as="geometry" />
        </mxCell>
        <mxCell id="QEEeFV-9qL2b_EY3cjki-89" value="&lt;span style=&quot;font-family: &amp;#34;verdana&amp;#34; , &amp;#34;arial&amp;#34; , &amp;#34;helvetica&amp;#34; , sans-serif ; font-size: 12.96px ; background-color: rgb(255 , 255 , 255)&quot;&gt;会员ID&lt;/span&gt;" style="ellipse;whiteSpace=wrap;html=1;align=center;" vertex="1" parent="Sc9yQ6TO0yZFQ_2XBnEG-1">
          <mxGeometry x="440" y="300" width="100" height="40" as="geometry" />
        </mxCell>
        <mxCell id="QEEeFV-9qL2b_EY3cjki-90" value="微信openid" style="ellipse;whiteSpace=wrap;html=1;align=center;" vertex="1" parent="Sc9yQ6TO0yZFQ_2XBnEG-1">
          <mxGeometry x="550" y="300" width="100" height="40" as="geometry" />
        </mxCell>
        <mxCell id="QEEeFV-9qL2b_EY3cjki-91" value="&lt;div&gt;手机号&lt;/div&gt;" style="ellipse;whiteSpace=wrap;html=1;align=center;" vertex="1" parent="Sc9yQ6TO0yZFQ_2XBnEG-1">
          <mxGeometry x="660" y="300" width="100" height="40" as="geometry" />
        </mxCell>
        <mxCell id="QEEeFV-9qL2b_EY3cjki-92" value="会员签名" style="ellipse;whiteSpace=wrap;html=1;align=center;" vertex="1" parent="Sc9yQ6TO0yZFQ_2XBnEG-1">
          <mxGeometry x="730" y="500" width="100" height="40" as="geometry" />
        </mxCell>
        <mxCell id="QEEeFV-9qL2b_EY3cjki-93" value="逻辑删除" style="ellipse;whiteSpace=wrap;html=1;align=center;" vertex="1" parent="Sc9yQ6TO0yZFQ_2XBnEG-1">
          <mxGeometry x="470" y="500" width="100" height="40" as="geometry" />
        </mxCell>
        <mxCell id="QEEeFV-9qL2b_EY3cjki-94" value="" style="endArrow=none;html=1;rounded=0;exitX=0;exitY=0;exitDx=0;exitDy=0;" edge="1" source="QEEeFV-9qL2b_EY3cjki-79" target="QEEeFV-9qL2b_EY3cjki-89" parent="Sc9yQ6TO0yZFQ_2XBnEG-1">
          <mxGeometry relative="1" as="geometry">
            <mxPoint x="570" y="360" as="sourcePoint" />
            <mxPoint x="730" y="360" as="targetPoint" />
          </mxGeometry>
        </mxCell>
        <mxCell id="QEEeFV-9qL2b_EY3cjki-95" value="" style="endArrow=none;html=1;rounded=0;" edge="1" parent="Sc9yQ6TO0yZFQ_2XBnEG-1">
          <mxGeometry relative="1" as="geometry">
            <mxPoint x="600" y="420" as="sourcePoint" />
            <mxPoint x="530" y="383" as="targetPoint" />
          </mxGeometry>
        </mxCell>
        <mxCell id="QEEeFV-9qL2b_EY3cjki-96" value="" style="endArrow=none;html=1;rounded=0;exitX=0;exitY=0.75;exitDx=0;exitDy=0;" edge="1" source="QEEeFV-9qL2b_EY3cjki-79" parent="Sc9yQ6TO0yZFQ_2XBnEG-1">
          <mxGeometry relative="1" as="geometry">
            <mxPoint x="625.9" y="482.48" as="sourcePoint" />
            <mxPoint x="539.9959374886088" y="420.00431817353376" as="targetPoint" />
          </mxGeometry>
        </mxCell>
        <mxCell id="QEEeFV-9qL2b_EY3cjki-97" value="" style="endArrow=none;html=1;rounded=0;exitX=0;exitY=1;exitDx=0;exitDy=0;entryX=1;entryY=0.5;entryDx=0;entryDy=0;" edge="1" source="QEEeFV-9qL2b_EY3cjki-79" target="QEEeFV-9qL2b_EY3cjki-86" parent="Sc9yQ6TO0yZFQ_2XBnEG-1">
          <mxGeometry relative="1" as="geometry">
            <mxPoint x="610" y="440" as="sourcePoint" />
            <mxPoint x="530" y="462" as="targetPoint" />
          </mxGeometry>
        </mxCell>
        <mxCell id="QEEeFV-9qL2b_EY3cjki-98" value="" style="endArrow=none;html=1;rounded=0;exitX=0.1;exitY=1;exitDx=0;exitDy=0;exitPerimeter=0;" edge="1" source="QEEeFV-9qL2b_EY3cjki-79" target="QEEeFV-9qL2b_EY3cjki-93" parent="Sc9yQ6TO0yZFQ_2XBnEG-1">
          <mxGeometry relative="1" as="geometry">
            <mxPoint x="620" y="450" as="sourcePoint" />
            <mxPoint x="559.9959374886088" y="440.00431817353376" as="targetPoint" />
          </mxGeometry>
        </mxCell>
        <mxCell id="QEEeFV-9qL2b_EY3cjki-99" value="" style="endArrow=none;html=1;rounded=0;exitX=0.5;exitY=1;exitDx=0;exitDy=0;entryX=0.5;entryY=0;entryDx=0;entryDy=0;" edge="1" source="QEEeFV-9qL2b_EY3cjki-79" target="QEEeFV-9qL2b_EY3cjki-85" parent="Sc9yQ6TO0yZFQ_2XBnEG-1">
          <mxGeometry relative="1" as="geometry">
            <mxPoint x="620" y="450" as="sourcePoint" />
            <mxPoint x="525.724787771376" y="512.8501414857494" as="targetPoint" />
          </mxGeometry>
        </mxCell>
        <mxCell id="QEEeFV-9qL2b_EY3cjki-101" value="" style="endArrow=none;html=1;rounded=0;exitX=0.5;exitY=1;exitDx=0;exitDy=0;" edge="1" parent="Sc9yQ6TO0yZFQ_2XBnEG-1">
          <mxGeometry relative="1" as="geometry">
            <mxPoint x="680" y="440" as="sourcePoint" />
            <mxPoint x="770" y="500" as="targetPoint" />
          </mxGeometry>
        </mxCell>
        <mxCell id="QEEeFV-9qL2b_EY3cjki-102" value="" style="endArrow=none;html=1;rounded=0;exitX=0.5;exitY=1;exitDx=0;exitDy=0;entryX=0.03;entryY=0.25;entryDx=0;entryDy=0;entryPerimeter=0;" edge="1" target="QEEeFV-9qL2b_EY3cjki-83" parent="Sc9yQ6TO0yZFQ_2XBnEG-1">
          <mxGeometry relative="1" as="geometry">
            <mxPoint x="700" y="423" as="sourcePoint" />
            <mxPoint x="800" y="490" as="targetPoint" />
          </mxGeometry>
        </mxCell>
        <mxCell id="QEEeFV-9qL2b_EY3cjki-103" value="" style="endArrow=none;html=1;rounded=0;exitX=0.5;exitY=1;exitDx=0;exitDy=0;entryX=0;entryY=0.5;entryDx=0;entryDy=0;" edge="1" target="QEEeFV-9qL2b_EY3cjki-82" parent="Sc9yQ6TO0yZFQ_2XBnEG-1">
          <mxGeometry relative="1" as="geometry">
            <mxPoint x="700" y="410" as="sourcePoint" />
            <mxPoint x="800" y="477" as="targetPoint" />
          </mxGeometry>
        </mxCell>
        <mxCell id="QEEeFV-9qL2b_EY3cjki-104" value="" style="endArrow=none;html=1;rounded=0;exitX=0.5;exitY=1;exitDx=0;exitDy=0;entryX=0;entryY=0.8;entryDx=0;entryDy=0;entryPerimeter=0;" edge="1" target="QEEeFV-9qL2b_EY3cjki-81" parent="Sc9yQ6TO0yZFQ_2XBnEG-1">
          <mxGeometry relative="1" as="geometry">
            <mxPoint x="700" y="400" as="sourcePoint" />
            <mxPoint x="800" y="467" as="targetPoint" />
          </mxGeometry>
        </mxCell>
        <mxCell id="QEEeFV-9qL2b_EY3cjki-105" value="" style="endArrow=none;html=1;rounded=0;" edge="1" parent="Sc9yQ6TO0yZFQ_2XBnEG-1">
          <mxGeometry relative="1" as="geometry">
            <mxPoint x="690" y="400" as="sourcePoint" />
            <mxPoint x="793" y="334" as="targetPoint" />
          </mxGeometry>
        </mxCell>
        <mxCell id="QEEeFV-9qL2b_EY3cjki-106" value="" style="endArrow=none;html=1;rounded=0;entryX=0.23;entryY=0.85;entryDx=0;entryDy=0;entryPerimeter=0;exitX=0.75;exitY=0;exitDx=0;exitDy=0;" edge="1" source="QEEeFV-9qL2b_EY3cjki-79" parent="Sc9yQ6TO0yZFQ_2XBnEG-1">
          <mxGeometry relative="1" as="geometry">
            <mxPoint x="610" y="406" as="sourcePoint" />
            <mxPoint x="713" y="340" as="targetPoint" />
          </mxGeometry>
        </mxCell>
        <mxCell id="QEEeFV-9qL2b_EY3cjki-107" value="" style="endArrow=none;html=1;rounded=0;exitX=0.5;exitY=1;exitDx=0;exitDy=0;" edge="1" parent="Sc9yQ6TO0yZFQ_2XBnEG-1">
          <mxGeometry relative="1" as="geometry">
            <mxPoint x="610" y="340" as="sourcePoint" />
            <mxPoint x="635" y="400" as="targetPoint" />
          </mxGeometry>
        </mxCell>
        <mxCell id="QEEeFV-9qL2b_EY3cjki-108" value="课程收藏" style="whiteSpace=wrap;html=1;align=center;" vertex="1" parent="Sc9yQ6TO0yZFQ_2XBnEG-1">
          <mxGeometry x="1470" y="95" width="100" height="40" as="geometry" />
        </mxCell>
        <mxCell id="QEEeFV-9qL2b_EY3cjki-111" value="创建时间" style="ellipse;whiteSpace=wrap;html=1;align=center;" vertex="1" parent="Sc9yQ6TO0yZFQ_2XBnEG-1">
          <mxGeometry x="1570" y="155" width="100" height="40" as="geometry" />
        </mxCell>
        <mxCell id="QEEeFV-9qL2b_EY3cjki-113" value="更新时间" style="ellipse;whiteSpace=wrap;html=1;align=center;" vertex="1" parent="Sc9yQ6TO0yZFQ_2XBnEG-1">
          <mxGeometry x="1350" y="155" width="100" height="40" as="geometry" />
        </mxCell>
        <mxCell id="QEEeFV-9qL2b_EY3cjki-114" value="逻辑删除&amp;nbsp;" style="ellipse;whiteSpace=wrap;html=1;align=center;" vertex="1" parent="Sc9yQ6TO0yZFQ_2XBnEG-1">
          <mxGeometry x="1460" y="155" width="100" height="40" as="geometry" />
        </mxCell>
        <mxCell id="QEEeFV-9qL2b_EY3cjki-115" value="&lt;span style=&quot;font-family: &amp;#34;verdana&amp;#34; , &amp;#34;arial&amp;#34; , &amp;#34;helvetica&amp;#34; , sans-serif ; font-size: 12.96px ; background-color: rgb(255 , 255 , 255)&quot;&gt;收藏ID&lt;/span&gt;" style="ellipse;whiteSpace=wrap;html=1;align=center;" vertex="1" parent="Sc9yQ6TO0yZFQ_2XBnEG-1">
          <mxGeometry x="1450" y="40" width="100" height="40" as="geometry" />
        </mxCell>
        <mxCell id="QEEeFV-9qL2b_EY3cjki-116" value="&lt;div&gt;课程ID&lt;/div&gt;" style="ellipse;whiteSpace=wrap;html=1;align=center;" vertex="1" parent="Sc9yQ6TO0yZFQ_2XBnEG-1">
          <mxGeometry x="1570" y="50" width="100" height="40" as="geometry" />
        </mxCell>
        <mxCell id="QEEeFV-9qL2b_EY3cjki-117" value="" style="endArrow=none;html=1;rounded=0;entryX=1;entryY=1;entryDx=0;entryDy=0;" edge="1" parent="Sc9yQ6TO0yZFQ_2XBnEG-1" target="QEEeFV-9qL2b_EY3cjki-125">
          <mxGeometry relative="1" as="geometry">
            <mxPoint x="1470" y="115" as="sourcePoint" />
            <mxPoint x="1400" y="70" as="targetPoint" />
          </mxGeometry>
        </mxCell>
        <mxCell id="QEEeFV-9qL2b_EY3cjki-118" value="" style="endArrow=none;html=1;rounded=0;exitX=0;exitY=0.75;exitDx=0;exitDy=0;" edge="1" source="QEEeFV-9qL2b_EY3cjki-108" parent="Sc9yQ6TO0yZFQ_2XBnEG-1">
          <mxGeometry relative="1" as="geometry">
            <mxPoint x="1495.9" y="177.48000000000002" as="sourcePoint" />
            <mxPoint x="1430" y="160" as="targetPoint" />
          </mxGeometry>
        </mxCell>
        <mxCell id="QEEeFV-9qL2b_EY3cjki-122" value="" style="endArrow=none;html=1;rounded=0;exitX=0.75;exitY=0;exitDx=0;exitDy=0;entryX=0.07;entryY=0.825;entryDx=0;entryDy=0;entryPerimeter=0;" edge="1" source="QEEeFV-9qL2b_EY3cjki-108" parent="Sc9yQ6TO0yZFQ_2XBnEG-1" target="QEEeFV-9qL2b_EY3cjki-116">
          <mxGeometry relative="1" as="geometry">
            <mxPoint x="1480" y="101" as="sourcePoint" />
            <mxPoint x="1565" y="65" as="targetPoint" />
          </mxGeometry>
        </mxCell>
        <mxCell id="QEEeFV-9qL2b_EY3cjki-123" value="" style="endArrow=none;html=1;rounded=0;" edge="1" parent="Sc9yQ6TO0yZFQ_2XBnEG-1">
          <mxGeometry relative="1" as="geometry">
            <mxPoint x="1505" y="80" as="sourcePoint" />
            <mxPoint x="1505" y="95" as="targetPoint" />
          </mxGeometry>
        </mxCell>
        <mxCell id="QEEeFV-9qL2b_EY3cjki-124" value="" style="endArrow=none;html=1;rounded=0;entryX=0;entryY=0;entryDx=0;entryDy=0;exitX=0.75;exitY=1;exitDx=0;exitDy=0;" edge="1" source="QEEeFV-9qL2b_EY3cjki-108" target="QEEeFV-9qL2b_EY3cjki-111" parent="Sc9yQ6TO0yZFQ_2XBnEG-1">
          <mxGeometry relative="1" as="geometry">
            <mxPoint x="1530" y="135" as="sourcePoint" />
            <mxPoint x="1545" y="155" as="targetPoint" />
          </mxGeometry>
        </mxCell>
        <mxCell id="QEEeFV-9qL2b_EY3cjki-125" value="&lt;font face=&quot;verdana, arial, helvetica, sans-serif&quot;&gt;&lt;span style=&quot;font-size: 12.96px&quot;&gt;会员ID&lt;/span&gt;&lt;/font&gt;" style="ellipse;whiteSpace=wrap;html=1;align=center;" vertex="1" parent="Sc9yQ6TO0yZFQ_2XBnEG-1">
          <mxGeometry x="1340" y="50" width="100" height="40" as="geometry" />
        </mxCell>
        <mxCell id="QEEeFV-9qL2b_EY3cjki-131" value="" style="endArrow=none;html=1;rounded=0;entryX=0.5;entryY=0;entryDx=0;entryDy=0;" edge="1" parent="Sc9yQ6TO0yZFQ_2XBnEG-1" target="QEEeFV-9qL2b_EY3cjki-114">
          <mxGeometry relative="1" as="geometry">
            <mxPoint x="1510" y="135" as="sourcePoint" />
            <mxPoint x="1565" y="155" as="targetPoint" />
          </mxGeometry>
        </mxCell>
        <mxCell id="QEEeFV-9qL2b_EY3cjki-133" value="课程章节" style="whiteSpace=wrap;html=1;align=center;" vertex="1" parent="Sc9yQ6TO0yZFQ_2XBnEG-1">
          <mxGeometry x="1070" y="445" width="100" height="40" as="geometry" />
        </mxCell>
        <mxCell id="QEEeFV-9qL2b_EY3cjki-134" value="创建时间" style="ellipse;whiteSpace=wrap;html=1;align=center;" vertex="1" parent="Sc9yQ6TO0yZFQ_2XBnEG-1">
          <mxGeometry x="1170" y="499" width="100" height="40" as="geometry" />
        </mxCell>
        <mxCell id="QEEeFV-9qL2b_EY3cjki-135" value="更新时间" style="ellipse;whiteSpace=wrap;html=1;align=center;" vertex="1" parent="Sc9yQ6TO0yZFQ_2XBnEG-1">
          <mxGeometry x="950" y="499" width="100" height="40" as="geometry" />
        </mxCell>
        <mxCell id="QEEeFV-9qL2b_EY3cjki-136" value="显示排序" style="ellipse;whiteSpace=wrap;html=1;align=center;" vertex="1" parent="Sc9yQ6TO0yZFQ_2XBnEG-1">
          <mxGeometry x="1060" y="500" width="100" height="40" as="geometry" />
        </mxCell>
        <mxCell id="QEEeFV-9qL2b_EY3cjki-137" value="&lt;font face=&quot;verdana, arial, helvetica, sans-serif&quot;&gt;&lt;span style=&quot;font-size: 12.96px&quot;&gt;课程ID&lt;/span&gt;&lt;/font&gt;" style="ellipse;whiteSpace=wrap;html=1;align=center;" vertex="1" parent="Sc9yQ6TO0yZFQ_2XBnEG-1">
          <mxGeometry x="1050" y="390" width="100" height="40" as="geometry" />
        </mxCell>
        <mxCell id="QEEeFV-9qL2b_EY3cjki-138" value="&lt;div&gt;章节名称&lt;/div&gt;" style="ellipse;whiteSpace=wrap;html=1;align=center;" vertex="1" parent="Sc9yQ6TO0yZFQ_2XBnEG-1">
          <mxGeometry x="1170" y="400" width="100" height="40" as="geometry" />
        </mxCell>
        <mxCell id="QEEeFV-9qL2b_EY3cjki-139" value="" style="endArrow=none;html=1;rounded=0;entryX=1;entryY=1;entryDx=0;entryDy=0;" edge="1" target="QEEeFV-9qL2b_EY3cjki-144" parent="Sc9yQ6TO0yZFQ_2XBnEG-1">
          <mxGeometry relative="1" as="geometry">
            <mxPoint x="1070" y="465" as="sourcePoint" />
            <mxPoint x="1000" y="420" as="targetPoint" />
          </mxGeometry>
        </mxCell>
        <mxCell id="QEEeFV-9qL2b_EY3cjki-140" value="" style="endArrow=none;html=1;rounded=0;exitX=0;exitY=0.75;exitDx=0;exitDy=0;" edge="1" source="QEEeFV-9qL2b_EY3cjki-133" parent="Sc9yQ6TO0yZFQ_2XBnEG-1">
          <mxGeometry relative="1" as="geometry">
            <mxPoint x="1095.9" y="527.48" as="sourcePoint" />
            <mxPoint x="1030" y="510" as="targetPoint" />
          </mxGeometry>
        </mxCell>
        <mxCell id="QEEeFV-9qL2b_EY3cjki-141" value="" style="endArrow=none;html=1;rounded=0;exitX=0.75;exitY=0;exitDx=0;exitDy=0;entryX=0.07;entryY=0.825;entryDx=0;entryDy=0;entryPerimeter=0;" edge="1" source="QEEeFV-9qL2b_EY3cjki-133" target="QEEeFV-9qL2b_EY3cjki-138" parent="Sc9yQ6TO0yZFQ_2XBnEG-1">
          <mxGeometry relative="1" as="geometry">
            <mxPoint x="1080" y="451" as="sourcePoint" />
            <mxPoint x="1165" y="415" as="targetPoint" />
          </mxGeometry>
        </mxCell>
        <mxCell id="QEEeFV-9qL2b_EY3cjki-142" value="" style="endArrow=none;html=1;rounded=0;" edge="1" parent="Sc9yQ6TO0yZFQ_2XBnEG-1">
          <mxGeometry relative="1" as="geometry">
            <mxPoint x="1105" y="430" as="sourcePoint" />
            <mxPoint x="1105" y="445" as="targetPoint" />
          </mxGeometry>
        </mxCell>
        <mxCell id="QEEeFV-9qL2b_EY3cjki-143" value="" style="endArrow=none;html=1;rounded=0;entryX=0;entryY=0;entryDx=0;entryDy=0;exitX=0.75;exitY=1;exitDx=0;exitDy=0;" edge="1" source="QEEeFV-9qL2b_EY3cjki-133" target="QEEeFV-9qL2b_EY3cjki-134" parent="Sc9yQ6TO0yZFQ_2XBnEG-1">
          <mxGeometry relative="1" as="geometry">
            <mxPoint x="1130" y="485" as="sourcePoint" />
            <mxPoint x="1145" y="505" as="targetPoint" />
          </mxGeometry>
        </mxCell>
        <mxCell id="QEEeFV-9qL2b_EY3cjki-144" value="&lt;font face=&quot;verdana, arial, helvetica, sans-serif&quot;&gt;&lt;span style=&quot;font-size: 12.96px&quot;&gt;章节ID&lt;/span&gt;&lt;/font&gt;" style="ellipse;whiteSpace=wrap;html=1;align=center;" vertex="1" parent="Sc9yQ6TO0yZFQ_2XBnEG-1">
          <mxGeometry x="940" y="400" width="100" height="40" as="geometry" />
        </mxCell>
        <mxCell id="QEEeFV-9qL2b_EY3cjki-145" value="" style="endArrow=none;html=1;rounded=0;entryX=0.5;entryY=0;entryDx=0;entryDy=0;" edge="1" target="QEEeFV-9qL2b_EY3cjki-136" parent="Sc9yQ6TO0yZFQ_2XBnEG-1">
          <mxGeometry relative="1" as="geometry">
            <mxPoint x="1110" y="485" as="sourcePoint" />
            <mxPoint x="1165" y="505" as="targetPoint" />
          </mxGeometry>
        </mxCell>
        <mxCell id="QEEeFV-9qL2b_EY3cjki-146" value="课程科目" style="whiteSpace=wrap;html=1;align=center;" vertex="1" parent="Sc9yQ6TO0yZFQ_2XBnEG-1">
          <mxGeometry x="1406" y="435" width="100" height="40" as="geometry" />
        </mxCell>
        <mxCell id="QEEeFV-9qL2b_EY3cjki-147" value="创建时间" style="ellipse;whiteSpace=wrap;html=1;align=center;" vertex="1" parent="Sc9yQ6TO0yZFQ_2XBnEG-1">
          <mxGeometry x="1496" y="473" width="100" height="40" as="geometry" />
        </mxCell>
        <mxCell id="QEEeFV-9qL2b_EY3cjki-148" value="更新时间" style="ellipse;whiteSpace=wrap;html=1;align=center;" vertex="1" parent="Sc9yQ6TO0yZFQ_2XBnEG-1">
          <mxGeometry x="1290" y="495" width="100" height="40" as="geometry" />
        </mxCell>
        <mxCell id="QEEeFV-9qL2b_EY3cjki-149" value="显示排序" style="ellipse;whiteSpace=wrap;html=1;align=center;" vertex="1" parent="Sc9yQ6TO0yZFQ_2XBnEG-1">
          <mxGeometry x="1400" y="495" width="100" height="40" as="geometry" />
        </mxCell>
        <mxCell id="QEEeFV-9qL2b_EY3cjki-150" value="&lt;font face=&quot;verdana, arial, helvetica, sans-serif&quot;&gt;&lt;span style=&quot;font-size: 12.96px&quot;&gt;类别名称&lt;/span&gt;&lt;/font&gt;" style="ellipse;whiteSpace=wrap;html=1;align=center;" vertex="1" parent="Sc9yQ6TO0yZFQ_2XBnEG-1">
          <mxGeometry x="1390" y="380" width="100" height="40" as="geometry" />
        </mxCell>
        <mxCell id="QEEeFV-9qL2b_EY3cjki-151" value="&lt;div&gt;父ID&lt;/div&gt;" style="ellipse;whiteSpace=wrap;html=1;align=center;" vertex="1" parent="Sc9yQ6TO0yZFQ_2XBnEG-1">
          <mxGeometry x="1489" y="394" width="100" height="40" as="geometry" />
        </mxCell>
        <mxCell id="QEEeFV-9qL2b_EY3cjki-152" value="" style="endArrow=none;html=1;rounded=0;entryX=1;entryY=1;entryDx=0;entryDy=0;" edge="1" target="QEEeFV-9qL2b_EY3cjki-157" parent="Sc9yQ6TO0yZFQ_2XBnEG-1">
          <mxGeometry relative="1" as="geometry">
            <mxPoint x="1410" y="455" as="sourcePoint" />
            <mxPoint x="1340" y="410" as="targetPoint" />
          </mxGeometry>
        </mxCell>
        <mxCell id="QEEeFV-9qL2b_EY3cjki-153" value="" style="endArrow=none;html=1;rounded=0;exitX=0;exitY=0.75;exitDx=0;exitDy=0;" edge="1" source="QEEeFV-9qL2b_EY3cjki-146" parent="Sc9yQ6TO0yZFQ_2XBnEG-1">
          <mxGeometry relative="1" as="geometry">
            <mxPoint x="1435.9" y="517.48" as="sourcePoint" />
            <mxPoint x="1370" y="500" as="targetPoint" />
          </mxGeometry>
        </mxCell>
        <mxCell id="QEEeFV-9qL2b_EY3cjki-154" value="" style="endArrow=none;html=1;rounded=0;exitX=0.75;exitY=0;exitDx=0;exitDy=0;entryX=0.07;entryY=0.825;entryDx=0;entryDy=0;entryPerimeter=0;" edge="1" source="QEEeFV-9qL2b_EY3cjki-146" target="QEEeFV-9qL2b_EY3cjki-151" parent="Sc9yQ6TO0yZFQ_2XBnEG-1">
          <mxGeometry relative="1" as="geometry">
            <mxPoint x="1420" y="441" as="sourcePoint" />
            <mxPoint x="1505" y="405" as="targetPoint" />
          </mxGeometry>
        </mxCell>
        <mxCell id="QEEeFV-9qL2b_EY3cjki-155" value="" style="endArrow=none;html=1;rounded=0;" edge="1" parent="Sc9yQ6TO0yZFQ_2XBnEG-1">
          <mxGeometry relative="1" as="geometry">
            <mxPoint x="1445" y="420" as="sourcePoint" />
            <mxPoint x="1445" y="435" as="targetPoint" />
          </mxGeometry>
        </mxCell>
        <mxCell id="QEEeFV-9qL2b_EY3cjki-156" value="" style="endArrow=none;html=1;rounded=0;entryX=0;entryY=0;entryDx=0;entryDy=0;exitX=0.75;exitY=1;exitDx=0;exitDy=0;" edge="1" source="QEEeFV-9qL2b_EY3cjki-146" target="QEEeFV-9qL2b_EY3cjki-147" parent="Sc9yQ6TO0yZFQ_2XBnEG-1">
          <mxGeometry relative="1" as="geometry">
            <mxPoint x="1470" y="475" as="sourcePoint" />
            <mxPoint x="1485" y="495" as="targetPoint" />
          </mxGeometry>
        </mxCell>
        <mxCell id="QEEeFV-9qL2b_EY3cjki-157" value="&lt;font face=&quot;verdana, arial, helvetica, sans-serif&quot;&gt;&lt;span style=&quot;font-size: 12.96px&quot;&gt;课程类别ID&lt;/span&gt;&lt;/font&gt;" style="ellipse;whiteSpace=wrap;html=1;align=center;" vertex="1" parent="Sc9yQ6TO0yZFQ_2XBnEG-1">
          <mxGeometry x="1280" y="390" width="100" height="40" as="geometry" />
        </mxCell>
        <mxCell id="QEEeFV-9qL2b_EY3cjki-158" value="" style="endArrow=none;html=1;rounded=0;entryX=0.5;entryY=0;entryDx=0;entryDy=0;" edge="1" target="QEEeFV-9qL2b_EY3cjki-149" parent="Sc9yQ6TO0yZFQ_2XBnEG-1">
          <mxGeometry relative="1" as="geometry">
            <mxPoint x="1450" y="475" as="sourcePoint" />
            <mxPoint x="1505" y="495" as="targetPoint" />
          </mxGeometry>
        </mxCell>
        <mxCell id="QEEeFV-9qL2b_EY3cjki-159" value="&lt;span style=&quot;font-family: &amp;#34;verdana&amp;#34; , &amp;#34;arial&amp;#34; , &amp;#34;helvetica&amp;#34; , sans-serif ; font-size: 14.4px ; background-color: rgb(255 , 255 , 255)&quot;&gt;课程简介&lt;/span&gt;" style="whiteSpace=wrap;html=1;align=center;" vertex="1" parent="Sc9yQ6TO0yZFQ_2XBnEG-1">
          <mxGeometry x="1616" y="445" width="100" height="40" as="geometry" />
        </mxCell>
        <mxCell id="QEEeFV-9qL2b_EY3cjki-160" value="创建时间" style="ellipse;whiteSpace=wrap;html=1;align=center;" vertex="1" parent="Sc9yQ6TO0yZFQ_2XBnEG-1">
          <mxGeometry x="1696" y="487" width="100" height="40" as="geometry" />
        </mxCell>
        <mxCell id="QEEeFV-9qL2b_EY3cjki-161" value="更新时间" style="ellipse;whiteSpace=wrap;html=1;align=center;" vertex="1" parent="Sc9yQ6TO0yZFQ_2XBnEG-1">
          <mxGeometry x="1594" y="499" width="100" height="40" as="geometry" />
        </mxCell>
        <mxCell id="QEEeFV-9qL2b_EY3cjki-162" value="&lt;font face=&quot;verdana, arial, helvetica, sans-serif&quot;&gt;&lt;span style=&quot;font-size: 12.96px&quot;&gt;课程ID&lt;/span&gt;&lt;/font&gt;" style="ellipse;whiteSpace=wrap;html=1;align=center;" vertex="1" parent="Sc9yQ6TO0yZFQ_2XBnEG-1">
          <mxGeometry x="1592" y="390" width="100" height="40" as="geometry" />
        </mxCell>
        <mxCell id="QEEeFV-9qL2b_EY3cjki-163" value="&lt;div&gt;课程介绍&lt;/div&gt;" style="ellipse;whiteSpace=wrap;html=1;align=center;" vertex="1" parent="Sc9yQ6TO0yZFQ_2XBnEG-1">
          <mxGeometry x="1694" y="392" width="100" height="40" as="geometry" />
        </mxCell>
        <mxCell id="QEEeFV-9qL2b_EY3cjki-164" value="" style="endArrow=none;html=1;rounded=0;exitX=0.75;exitY=0;exitDx=0;exitDy=0;entryX=0.07;entryY=0.825;entryDx=0;entryDy=0;entryPerimeter=0;" edge="1" source="QEEeFV-9qL2b_EY3cjki-159" target="QEEeFV-9qL2b_EY3cjki-163" parent="Sc9yQ6TO0yZFQ_2XBnEG-1">
          <mxGeometry relative="1" as="geometry">
            <mxPoint x="1640" y="451" as="sourcePoint" />
            <mxPoint x="1725" y="415" as="targetPoint" />
          </mxGeometry>
        </mxCell>
        <mxCell id="QEEeFV-9qL2b_EY3cjki-165" value="" style="endArrow=none;html=1;rounded=0;" edge="1" parent="Sc9yQ6TO0yZFQ_2XBnEG-1">
          <mxGeometry relative="1" as="geometry">
            <mxPoint x="1650" y="430" as="sourcePoint" />
            <mxPoint x="1665" y="445" as="targetPoint" />
            <Array as="points">
              <mxPoint x="1650" y="430" />
            </Array>
          </mxGeometry>
        </mxCell>
        <mxCell id="QEEeFV-9qL2b_EY3cjki-166" value="" style="endArrow=none;html=1;rounded=0;entryX=0;entryY=0;entryDx=0;entryDy=0;exitX=0.75;exitY=1;exitDx=0;exitDy=0;" edge="1" source="QEEeFV-9qL2b_EY3cjki-159" target="QEEeFV-9qL2b_EY3cjki-160" parent="Sc9yQ6TO0yZFQ_2XBnEG-1">
          <mxGeometry relative="1" as="geometry">
            <mxPoint x="1690" y="485" as="sourcePoint" />
            <mxPoint x="1705" y="505" as="targetPoint" />
          </mxGeometry>
        </mxCell>
        <mxCell id="QEEeFV-9qL2b_EY3cjki-167" value="" style="endArrow=none;html=1;rounded=0;entryX=0.5;entryY=0;entryDx=0;entryDy=0;" edge="1" target="QEEeFV-9qL2b_EY3cjki-161" parent="Sc9yQ6TO0yZFQ_2XBnEG-1">
          <mxGeometry relative="1" as="geometry">
            <mxPoint x="1670" y="485" as="sourcePoint" />
            <mxPoint x="1725" y="505" as="targetPoint" />
          </mxGeometry>
        </mxCell>
        <mxCell id="QEEeFV-9qL2b_EY3cjki-169" value="菜单" style="whiteSpace=wrap;html=1;align=center;" vertex="1" parent="Sc9yQ6TO0yZFQ_2XBnEG-1">
          <mxGeometry x="1990" y="140" width="100" height="40" as="geometry" />
        </mxCell>
        <mxCell id="QEEeFV-9qL2b_EY3cjki-170" value="类型" style="ellipse;whiteSpace=wrap;html=1;align=center;" vertex="1" parent="Sc9yQ6TO0yZFQ_2XBnEG-1">
          <mxGeometry x="2160" y="40" width="100" height="40" as="geometry" />
        </mxCell>
        <mxCell id="QEEeFV-9qL2b_EY3cjki-171" value="权限值" style="ellipse;whiteSpace=wrap;html=1;align=center;" vertex="1" parent="Sc9yQ6TO0yZFQ_2XBnEG-1">
          <mxGeometry x="2160" y="90" width="100" height="40" as="geometry" />
        </mxCell>
        <mxCell id="QEEeFV-9qL2b_EY3cjki-172" value="访问路径" style="ellipse;whiteSpace=wrap;html=1;align=center;" vertex="1" parent="Sc9yQ6TO0yZFQ_2XBnEG-1">
          <mxGeometry x="2160" y="140" width="100" height="40" as="geometry" />
        </mxCell>
        <mxCell id="QEEeFV-9qL2b_EY3cjki-173" value="组件路径" style="ellipse;whiteSpace=wrap;html=1;align=center;" vertex="1" parent="Sc9yQ6TO0yZFQ_2XBnEG-1">
          <mxGeometry x="2160" y="200" width="100" height="40" as="geometry" />
        </mxCell>
        <mxCell id="QEEeFV-9qL2b_EY3cjki-174" value="图标&amp;nbsp;" style="ellipse;whiteSpace=wrap;html=1;align=center;" vertex="1" parent="Sc9yQ6TO0yZFQ_2XBnEG-1">
          <mxGeometry x="2050" y="200" width="100" height="40" as="geometry" />
        </mxCell>
        <mxCell id="QEEeFV-9qL2b_EY3cjki-175" value="状态" style="ellipse;whiteSpace=wrap;html=1;align=center;" vertex="1" parent="Sc9yQ6TO0yZFQ_2XBnEG-1">
          <mxGeometry x="1940" y="200" width="100" height="40" as="geometry" />
        </mxCell>
        <mxCell id="QEEeFV-9qL2b_EY3cjki-176" value="&lt;div&gt;创建时间&lt;/div&gt;" style="ellipse;whiteSpace=wrap;html=1;align=center;" vertex="1" parent="Sc9yQ6TO0yZFQ_2XBnEG-1">
          <mxGeometry x="1830" y="195" width="100" height="40" as="geometry" />
        </mxCell>
        <mxCell id="QEEeFV-9qL2b_EY3cjki-177" value="更新时间" style="ellipse;whiteSpace=wrap;html=1;align=center;" vertex="1" parent="Sc9yQ6TO0yZFQ_2XBnEG-1">
          <mxGeometry x="1830" y="140" width="100" height="40" as="geometry" />
        </mxCell>
        <mxCell id="QEEeFV-9qL2b_EY3cjki-178" value="逻辑删除&amp;nbsp;" style="ellipse;whiteSpace=wrap;html=1;align=center;" vertex="1" parent="Sc9yQ6TO0yZFQ_2XBnEG-1">
          <mxGeometry x="1830" y="90" width="100" height="40" as="geometry" />
        </mxCell>
        <mxCell id="QEEeFV-9qL2b_EY3cjki-179" value="菜单ID" style="ellipse;whiteSpace=wrap;html=1;align=center;" vertex="1" parent="Sc9yQ6TO0yZFQ_2XBnEG-1">
          <mxGeometry x="1830" y="40" width="100" height="40" as="geometry" />
        </mxCell>
        <mxCell id="QEEeFV-9qL2b_EY3cjki-180" value="所属上级" style="ellipse;whiteSpace=wrap;html=1;align=center;" vertex="1" parent="Sc9yQ6TO0yZFQ_2XBnEG-1">
          <mxGeometry x="1940" y="40" width="100" height="40" as="geometry" />
        </mxCell>
        <mxCell id="QEEeFV-9qL2b_EY3cjki-181" value="&lt;div&gt;名称&lt;/div&gt;" style="ellipse;whiteSpace=wrap;html=1;align=center;" vertex="1" parent="Sc9yQ6TO0yZFQ_2XBnEG-1">
          <mxGeometry x="2050" y="40" width="100" height="40" as="geometry" />
        </mxCell>
        <mxCell id="QEEeFV-9qL2b_EY3cjki-184" value="" style="endArrow=none;html=1;rounded=0;exitX=0;exitY=0;exitDx=0;exitDy=0;" edge="1" source="QEEeFV-9qL2b_EY3cjki-169" target="QEEeFV-9qL2b_EY3cjki-179" parent="Sc9yQ6TO0yZFQ_2XBnEG-1">
          <mxGeometry relative="1" as="geometry">
            <mxPoint x="1960" y="100" as="sourcePoint" />
            <mxPoint x="2120" y="100" as="targetPoint" />
          </mxGeometry>
        </mxCell>
        <mxCell id="QEEeFV-9qL2b_EY3cjki-185" value="" style="endArrow=none;html=1;rounded=0;" edge="1" parent="Sc9yQ6TO0yZFQ_2XBnEG-1">
          <mxGeometry relative="1" as="geometry">
            <mxPoint x="1990" y="160" as="sourcePoint" />
            <mxPoint x="1920" y="123" as="targetPoint" />
          </mxGeometry>
        </mxCell>
        <mxCell id="QEEeFV-9qL2b_EY3cjki-186" value="" style="endArrow=none;html=1;rounded=0;exitX=0;exitY=0.75;exitDx=0;exitDy=0;" edge="1" source="QEEeFV-9qL2b_EY3cjki-169" parent="Sc9yQ6TO0yZFQ_2XBnEG-1">
          <mxGeometry relative="1" as="geometry">
            <mxPoint x="2015.9" y="222.48" as="sourcePoint" />
            <mxPoint x="1929.995937488609" y="160.00431817353376" as="targetPoint" />
          </mxGeometry>
        </mxCell>
        <mxCell id="QEEeFV-9qL2b_EY3cjki-187" value="" style="endArrow=none;html=1;rounded=0;exitX=0;exitY=1;exitDx=0;exitDy=0;entryX=1;entryY=0.5;entryDx=0;entryDy=0;" edge="1" source="QEEeFV-9qL2b_EY3cjki-169" target="QEEeFV-9qL2b_EY3cjki-176" parent="Sc9yQ6TO0yZFQ_2XBnEG-1">
          <mxGeometry relative="1" as="geometry">
            <mxPoint x="2000" y="180" as="sourcePoint" />
            <mxPoint x="1920" y="202" as="targetPoint" />
          </mxGeometry>
        </mxCell>
        <mxCell id="QEEeFV-9qL2b_EY3cjki-189" value="" style="endArrow=none;html=1;rounded=0;exitX=0.25;exitY=1;exitDx=0;exitDy=0;entryX=0.5;entryY=0;entryDx=0;entryDy=0;" edge="1" source="QEEeFV-9qL2b_EY3cjki-169" target="QEEeFV-9qL2b_EY3cjki-175" parent="Sc9yQ6TO0yZFQ_2XBnEG-1">
          <mxGeometry relative="1" as="geometry">
            <mxPoint x="2010" y="190" as="sourcePoint" />
            <mxPoint x="1915.724787771376" y="252.85014148574942" as="targetPoint" />
          </mxGeometry>
        </mxCell>
        <mxCell id="QEEeFV-9qL2b_EY3cjki-190" value="" style="endArrow=none;html=1;rounded=0;exitX=0.5;exitY=1;exitDx=0;exitDy=0;entryX=0;entryY=0;entryDx=0;entryDy=0;" edge="1" source="QEEeFV-9qL2b_EY3cjki-169" target="QEEeFV-9qL2b_EY3cjki-174" parent="Sc9yQ6TO0yZFQ_2XBnEG-1">
          <mxGeometry relative="1" as="geometry">
            <mxPoint x="2064.28" y="178.57" as="sourcePoint" />
            <mxPoint x="1970.004787771376" y="241.4201414857494" as="targetPoint" />
          </mxGeometry>
        </mxCell>
        <mxCell id="QEEeFV-9qL2b_EY3cjki-192" value="" style="endArrow=none;html=1;rounded=0;exitX=0.5;exitY=1;exitDx=0;exitDy=0;entryX=0.03;entryY=0.25;entryDx=0;entryDy=0;entryPerimeter=0;" edge="1" target="QEEeFV-9qL2b_EY3cjki-173" parent="Sc9yQ6TO0yZFQ_2XBnEG-1">
          <mxGeometry relative="1" as="geometry">
            <mxPoint x="2090" y="163" as="sourcePoint" />
            <mxPoint x="2190" y="230" as="targetPoint" />
          </mxGeometry>
        </mxCell>
        <mxCell id="QEEeFV-9qL2b_EY3cjki-193" value="" style="endArrow=none;html=1;rounded=0;exitX=0.5;exitY=1;exitDx=0;exitDy=0;entryX=0;entryY=0.5;entryDx=0;entryDy=0;" edge="1" target="QEEeFV-9qL2b_EY3cjki-172" parent="Sc9yQ6TO0yZFQ_2XBnEG-1">
          <mxGeometry relative="1" as="geometry">
            <mxPoint x="2090" y="150" as="sourcePoint" />
            <mxPoint x="2190" y="217" as="targetPoint" />
          </mxGeometry>
        </mxCell>
        <mxCell id="QEEeFV-9qL2b_EY3cjki-194" value="" style="endArrow=none;html=1;rounded=0;exitX=0.5;exitY=1;exitDx=0;exitDy=0;" edge="1" parent="Sc9yQ6TO0yZFQ_2XBnEG-1">
          <mxGeometry relative="1" as="geometry">
            <mxPoint x="2090" y="140" as="sourcePoint" />
            <mxPoint x="2170" y="122" as="targetPoint" />
          </mxGeometry>
        </mxCell>
        <mxCell id="QEEeFV-9qL2b_EY3cjki-195" value="" style="endArrow=none;html=1;rounded=0;" edge="1" parent="Sc9yQ6TO0yZFQ_2XBnEG-1">
          <mxGeometry relative="1" as="geometry">
            <mxPoint x="2080" y="140" as="sourcePoint" />
            <mxPoint x="2183" y="74" as="targetPoint" />
          </mxGeometry>
        </mxCell>
        <mxCell id="QEEeFV-9qL2b_EY3cjki-196" value="" style="endArrow=none;html=1;rounded=0;entryX=0.23;entryY=0.85;entryDx=0;entryDy=0;entryPerimeter=0;exitX=0.75;exitY=0;exitDx=0;exitDy=0;" edge="1" source="QEEeFV-9qL2b_EY3cjki-169" parent="Sc9yQ6TO0yZFQ_2XBnEG-1">
          <mxGeometry relative="1" as="geometry">
            <mxPoint x="2000" y="146" as="sourcePoint" />
            <mxPoint x="2103" y="80" as="targetPoint" />
          </mxGeometry>
        </mxCell>
        <mxCell id="QEEeFV-9qL2b_EY3cjki-197" value="" style="endArrow=none;html=1;rounded=0;exitX=0.5;exitY=1;exitDx=0;exitDy=0;" edge="1" parent="Sc9yQ6TO0yZFQ_2XBnEG-1">
          <mxGeometry relative="1" as="geometry">
            <mxPoint x="2000" y="80" as="sourcePoint" />
            <mxPoint x="2025" y="140" as="targetPoint" />
          </mxGeometry>
        </mxCell>
        <mxCell id="QEEeFV-9qL2b_EY3cjki-198" value="管理员" style="whiteSpace=wrap;html=1;align=center;" vertex="1" parent="Sc9yQ6TO0yZFQ_2XBnEG-1">
          <mxGeometry x="1985" y="320" width="100" height="40" as="geometry" />
        </mxCell>
        <mxCell id="QEEeFV-9qL2b_EY3cjki-199" value="昵称" style="ellipse;whiteSpace=wrap;html=1;align=center;" vertex="1" parent="Sc9yQ6TO0yZFQ_2XBnEG-1">
          <mxGeometry x="2120" y="250" width="100" height="40" as="geometry" />
        </mxCell>
        <mxCell id="QEEeFV-9qL2b_EY3cjki-200" value="&lt;font face=&quot;verdana, arial, helvetica, sans-serif&quot;&gt;&lt;span style=&quot;font-size: 12.96px&quot;&gt;头像&lt;/span&gt;&lt;/font&gt;" style="ellipse;whiteSpace=wrap;html=1;align=center;" vertex="1" parent="Sc9yQ6TO0yZFQ_2XBnEG-1">
          <mxGeometry x="2155" y="292" width="100" height="40" as="geometry" />
        </mxCell>
        <mxCell id="QEEeFV-9qL2b_EY3cjki-203" value="更新时间" style="ellipse;whiteSpace=wrap;html=1;align=center;" vertex="1" parent="Sc9yQ6TO0yZFQ_2XBnEG-1">
          <mxGeometry x="1825" y="340" width="100" height="40" as="geometry" />
        </mxCell>
        <mxCell id="QEEeFV-9qL2b_EY3cjki-204" value="逻辑删除&amp;nbsp;" style="ellipse;whiteSpace=wrap;html=1;align=center;" vertex="1" parent="Sc9yQ6TO0yZFQ_2XBnEG-1">
          <mxGeometry x="1825" y="290" width="100" height="40" as="geometry" />
        </mxCell>
        <mxCell id="QEEeFV-9qL2b_EY3cjki-205" value="&lt;font face=&quot;verdana, arial, helvetica, sans-serif&quot;&gt;&lt;span style=&quot;font-size: 12.96px&quot;&gt;用户ID&lt;/span&gt;&lt;/font&gt;" style="ellipse;whiteSpace=wrap;html=1;align=center;" vertex="1" parent="Sc9yQ6TO0yZFQ_2XBnEG-1">
          <mxGeometry x="1900" y="250" width="100" height="40" as="geometry" />
        </mxCell>
        <mxCell id="QEEeFV-9qL2b_EY3cjki-206" value="&lt;div&gt;密码&lt;/div&gt;" style="ellipse;whiteSpace=wrap;html=1;align=center;" vertex="1" parent="Sc9yQ6TO0yZFQ_2XBnEG-1">
          <mxGeometry x="2010" y="250" width="100" height="40" as="geometry" />
        </mxCell>
        <mxCell id="QEEeFV-9qL2b_EY3cjki-207" value="" style="endArrow=none;html=1;rounded=0;entryX=1.01;entryY=0.675;entryDx=0;entryDy=0;entryPerimeter=0;" edge="1" parent="Sc9yQ6TO0yZFQ_2XBnEG-1" target="QEEeFV-9qL2b_EY3cjki-204">
          <mxGeometry relative="1" as="geometry">
            <mxPoint x="1985" y="340" as="sourcePoint" />
            <mxPoint x="1915" y="303" as="targetPoint" />
          </mxGeometry>
        </mxCell>
        <mxCell id="QEEeFV-9qL2b_EY3cjki-208" value="" style="endArrow=none;html=1;rounded=0;exitX=0;exitY=0.75;exitDx=0;exitDy=0;entryX=1;entryY=0.5;entryDx=0;entryDy=0;" edge="1" source="QEEeFV-9qL2b_EY3cjki-198" parent="Sc9yQ6TO0yZFQ_2XBnEG-1" target="QEEeFV-9qL2b_EY3cjki-203">
          <mxGeometry relative="1" as="geometry">
            <mxPoint x="2010.9" y="402.48" as="sourcePoint" />
            <mxPoint x="1924.995937488609" y="340.00431817353365" as="targetPoint" />
          </mxGeometry>
        </mxCell>
        <mxCell id="QEEeFV-9qL2b_EY3cjki-210" value="" style="endArrow=none;html=1;rounded=0;exitX=0.5;exitY=1;exitDx=0;exitDy=0;entryX=0;entryY=0.5;entryDx=0;entryDy=0;" edge="1" target="QEEeFV-9qL2b_EY3cjki-200" parent="Sc9yQ6TO0yZFQ_2XBnEG-1">
          <mxGeometry relative="1" as="geometry">
            <mxPoint x="2085" y="330" as="sourcePoint" />
            <mxPoint x="2185" y="397" as="targetPoint" />
          </mxGeometry>
        </mxCell>
        <mxCell id="QEEeFV-9qL2b_EY3cjki-211" value="" style="endArrow=none;html=1;rounded=0;exitX=0.5;exitY=1;exitDx=0;exitDy=0;entryX=0;entryY=1;entryDx=0;entryDy=0;" edge="1" parent="Sc9yQ6TO0yZFQ_2XBnEG-1" target="QEEeFV-9qL2b_EY3cjki-199">
          <mxGeometry relative="1" as="geometry">
            <mxPoint x="2085" y="320" as="sourcePoint" />
            <mxPoint x="2160" y="302" as="targetPoint" />
          </mxGeometry>
        </mxCell>
        <mxCell id="QEEeFV-9qL2b_EY3cjki-212" value="" style="endArrow=none;html=1;rounded=0;exitX=0.5;exitY=0;exitDx=0;exitDy=0;entryX=0.5;entryY=1;entryDx=0;entryDy=0;" edge="1" source="QEEeFV-9qL2b_EY3cjki-198" parent="Sc9yQ6TO0yZFQ_2XBnEG-1" target="QEEeFV-9qL2b_EY3cjki-206">
          <mxGeometry relative="1" as="geometry">
            <mxPoint x="1995" y="326" as="sourcePoint" />
            <mxPoint x="2080" y="290" as="targetPoint" />
          </mxGeometry>
        </mxCell>
        <mxCell id="QEEeFV-9qL2b_EY3cjki-213" value="" style="endArrow=none;html=1;rounded=0;exitX=0.63;exitY=1;exitDx=0;exitDy=0;exitPerimeter=0;" edge="1" parent="Sc9yQ6TO0yZFQ_2XBnEG-1" source="QEEeFV-9qL2b_EY3cjki-205">
          <mxGeometry relative="1" as="geometry">
            <mxPoint x="2010" y="290" as="sourcePoint" />
            <mxPoint x="2020" y="320" as="targetPoint" />
          </mxGeometry>
        </mxCell>
        <mxCell id="QEEeFV-9qL2b_EY3cjki-215" value="&lt;font face=&quot;verdana, arial, helvetica, sans-serif&quot;&gt;&lt;span style=&quot;font-size: 12.96px&quot;&gt;创建时间&lt;/span&gt;&lt;/font&gt;" style="ellipse;whiteSpace=wrap;html=1;align=center;" vertex="1" parent="Sc9yQ6TO0yZFQ_2XBnEG-1">
          <mxGeometry x="2155" y="340" width="100" height="40" as="geometry" />
        </mxCell>
        <mxCell id="QEEeFV-9qL2b_EY3cjki-218" value="" style="endArrow=none;html=1;rounded=0;entryX=0;entryY=0.5;entryDx=0;entryDy=0;exitX=1;exitY=0.75;exitDx=0;exitDy=0;" edge="1" target="QEEeFV-9qL2b_EY3cjki-215" parent="Sc9yQ6TO0yZFQ_2XBnEG-1" source="QEEeFV-9qL2b_EY3cjki-198">
          <mxGeometry relative="1" as="geometry">
            <mxPoint x="2090" y="360" as="sourcePoint" />
            <mxPoint x="2165" y="350" as="targetPoint" />
          </mxGeometry>
        </mxCell>
        <mxCell id="QEEeFV-9qL2b_EY3cjki-219" value="角色" style="whiteSpace=wrap;html=1;align=center;" vertex="1" parent="Sc9yQ6TO0yZFQ_2XBnEG-1">
          <mxGeometry x="1980" y="453" width="100" height="40" as="geometry" />
        </mxCell>
        <mxCell id="QEEeFV-9qL2b_EY3cjki-220" value="角色编码" style="ellipse;whiteSpace=wrap;html=1;align=center;" vertex="1" parent="Sc9yQ6TO0yZFQ_2XBnEG-1">
          <mxGeometry x="2115" y="383" width="100" height="40" as="geometry" />
        </mxCell>
        <mxCell id="QEEeFV-9qL2b_EY3cjki-221" value="&lt;font face=&quot;verdana, arial, helvetica, sans-serif&quot;&gt;&lt;span style=&quot;font-size: 12.96px&quot;&gt;备注&lt;/span&gt;&lt;/font&gt;" style="ellipse;whiteSpace=wrap;html=1;align=center;" vertex="1" parent="Sc9yQ6TO0yZFQ_2XBnEG-1">
          <mxGeometry x="2150" y="425" width="100" height="40" as="geometry" />
        </mxCell>
        <mxCell id="QEEeFV-9qL2b_EY3cjki-222" value="更新时间" style="ellipse;whiteSpace=wrap;html=1;align=center;" vertex="1" parent="Sc9yQ6TO0yZFQ_2XBnEG-1">
          <mxGeometry x="1820" y="473" width="100" height="40" as="geometry" />
        </mxCell>
        <mxCell id="QEEeFV-9qL2b_EY3cjki-223" value="逻辑删除&amp;nbsp;" style="ellipse;whiteSpace=wrap;html=1;align=center;" vertex="1" parent="Sc9yQ6TO0yZFQ_2XBnEG-1">
          <mxGeometry x="1820" y="423" width="100" height="40" as="geometry" />
        </mxCell>
        <mxCell id="QEEeFV-9qL2b_EY3cjki-224" value="&lt;font face=&quot;verdana, arial, helvetica, sans-serif&quot;&gt;&lt;span style=&quot;font-size: 12.96px&quot;&gt;角色ID&lt;/span&gt;&lt;/font&gt;" style="ellipse;whiteSpace=wrap;html=1;align=center;" vertex="1" parent="Sc9yQ6TO0yZFQ_2XBnEG-1">
          <mxGeometry x="1895" y="383" width="100" height="40" as="geometry" />
        </mxCell>
        <mxCell id="QEEeFV-9qL2b_EY3cjki-225" value="&lt;div&gt;角色名称&lt;/div&gt;" style="ellipse;whiteSpace=wrap;html=1;align=center;" vertex="1" parent="Sc9yQ6TO0yZFQ_2XBnEG-1">
          <mxGeometry x="2005" y="383" width="100" height="40" as="geometry" />
        </mxCell>
        <mxCell id="QEEeFV-9qL2b_EY3cjki-226" value="" style="endArrow=none;html=1;rounded=0;entryX=1.01;entryY=0.675;entryDx=0;entryDy=0;entryPerimeter=0;" edge="1" target="QEEeFV-9qL2b_EY3cjki-223" parent="Sc9yQ6TO0yZFQ_2XBnEG-1">
          <mxGeometry relative="1" as="geometry">
            <mxPoint x="1980" y="473" as="sourcePoint" />
            <mxPoint x="1910" y="436" as="targetPoint" />
          </mxGeometry>
        </mxCell>
        <mxCell id="QEEeFV-9qL2b_EY3cjki-227" value="" style="endArrow=none;html=1;rounded=0;exitX=0;exitY=0.75;exitDx=0;exitDy=0;entryX=1;entryY=0.5;entryDx=0;entryDy=0;" edge="1" source="QEEeFV-9qL2b_EY3cjki-219" target="QEEeFV-9qL2b_EY3cjki-222" parent="Sc9yQ6TO0yZFQ_2XBnEG-1">
          <mxGeometry relative="1" as="geometry">
            <mxPoint x="2005.9" y="535.48" as="sourcePoint" />
            <mxPoint x="1919.995937488609" y="473.00431817353365" as="targetPoint" />
          </mxGeometry>
        </mxCell>
        <mxCell id="QEEeFV-9qL2b_EY3cjki-228" value="" style="endArrow=none;html=1;rounded=0;exitX=0.5;exitY=1;exitDx=0;exitDy=0;entryX=0;entryY=0.5;entryDx=0;entryDy=0;" edge="1" target="QEEeFV-9qL2b_EY3cjki-221" parent="Sc9yQ6TO0yZFQ_2XBnEG-1">
          <mxGeometry relative="1" as="geometry">
            <mxPoint x="2080" y="463" as="sourcePoint" />
            <mxPoint x="2180" y="530" as="targetPoint" />
          </mxGeometry>
        </mxCell>
        <mxCell id="QEEeFV-9qL2b_EY3cjki-229" value="" style="endArrow=none;html=1;rounded=0;exitX=0.5;exitY=1;exitDx=0;exitDy=0;entryX=0;entryY=1;entryDx=0;entryDy=0;" edge="1" target="QEEeFV-9qL2b_EY3cjki-220" parent="Sc9yQ6TO0yZFQ_2XBnEG-1">
          <mxGeometry relative="1" as="geometry">
            <mxPoint x="2080" y="453" as="sourcePoint" />
            <mxPoint x="2155" y="435" as="targetPoint" />
          </mxGeometry>
        </mxCell>
        <mxCell id="QEEeFV-9qL2b_EY3cjki-230" value="" style="endArrow=none;html=1;rounded=0;exitX=0.5;exitY=0;exitDx=0;exitDy=0;entryX=0.5;entryY=1;entryDx=0;entryDy=0;" edge="1" source="QEEeFV-9qL2b_EY3cjki-219" target="QEEeFV-9qL2b_EY3cjki-225" parent="Sc9yQ6TO0yZFQ_2XBnEG-1">
          <mxGeometry relative="1" as="geometry">
            <mxPoint x="1990" y="459" as="sourcePoint" />
            <mxPoint x="2075" y="423" as="targetPoint" />
          </mxGeometry>
        </mxCell>
        <mxCell id="QEEeFV-9qL2b_EY3cjki-231" value="" style="endArrow=none;html=1;rounded=0;exitX=0.63;exitY=1;exitDx=0;exitDy=0;exitPerimeter=0;" edge="1" source="QEEeFV-9qL2b_EY3cjki-224" parent="Sc9yQ6TO0yZFQ_2XBnEG-1">
          <mxGeometry relative="1" as="geometry">
            <mxPoint x="2005" y="423" as="sourcePoint" />
            <mxPoint x="2015" y="453" as="targetPoint" />
          </mxGeometry>
        </mxCell>
        <mxCell id="QEEeFV-9qL2b_EY3cjki-232" value="&lt;font face=&quot;verdana, arial, helvetica, sans-serif&quot;&gt;&lt;span style=&quot;font-size: 12.96px&quot;&gt;创建时间&lt;/span&gt;&lt;/font&gt;" style="ellipse;whiteSpace=wrap;html=1;align=center;" vertex="1" parent="Sc9yQ6TO0yZFQ_2XBnEG-1">
          <mxGeometry x="2150" y="473" width="100" height="40" as="geometry" />
        </mxCell>
        <mxCell id="QEEeFV-9qL2b_EY3cjki-233" value="" style="endArrow=none;html=1;rounded=0;entryX=0;entryY=0.5;entryDx=0;entryDy=0;exitX=1;exitY=0.75;exitDx=0;exitDy=0;" edge="1" source="QEEeFV-9qL2b_EY3cjki-219" target="QEEeFV-9qL2b_EY3cjki-232" parent="Sc9yQ6TO0yZFQ_2XBnEG-1">
          <mxGeometry relative="1" as="geometry">
            <mxPoint x="2085" y="493" as="sourcePoint" />
            <mxPoint x="2160" y="483" as="targetPoint" />
          </mxGeometry>
        </mxCell>
        <mxCell id="QEEeFV-9qL2b_EY3cjki-262" value="角色权限" style="whiteSpace=wrap;html=1;align=center;" vertex="1" parent="Sc9yQ6TO0yZFQ_2XBnEG-1">
          <mxGeometry x="2420" y="90" width="100" height="40" as="geometry" />
        </mxCell>
        <mxCell id="QEEeFV-9qL2b_EY3cjki-263" value="角色ID" style="ellipse;whiteSpace=wrap;html=1;align=center;" vertex="1" parent="Sc9yQ6TO0yZFQ_2XBnEG-1">
          <mxGeometry x="2490" y="42" width="100" height="40" as="geometry" />
        </mxCell>
        <mxCell id="QEEeFV-9qL2b_EY3cjki-264" value="&lt;font face=&quot;verdana, arial, helvetica, sans-serif&quot;&gt;&lt;span style=&quot;font-size: 12.96px&quot;&gt;菜单ID&amp;nbsp;&lt;/span&gt;&lt;/font&gt;" style="ellipse;whiteSpace=wrap;html=1;align=center;" vertex="1" parent="Sc9yQ6TO0yZFQ_2XBnEG-1">
          <mxGeometry x="2590" y="62" width="100" height="40" as="geometry" />
        </mxCell>
        <mxCell id="QEEeFV-9qL2b_EY3cjki-265" value="更新时间" style="ellipse;whiteSpace=wrap;html=1;align=center;" vertex="1" parent="Sc9yQ6TO0yZFQ_2XBnEG-1">
          <mxGeometry x="2260" y="110" width="100" height="40" as="geometry" />
        </mxCell>
        <mxCell id="QEEeFV-9qL2b_EY3cjki-266" value="逻辑删除&amp;nbsp;" style="ellipse;whiteSpace=wrap;html=1;align=center;" vertex="1" parent="Sc9yQ6TO0yZFQ_2XBnEG-1">
          <mxGeometry x="2260" y="60" width="100" height="40" as="geometry" />
        </mxCell>
        <mxCell id="QEEeFV-9qL2b_EY3cjki-267" value="&lt;font face=&quot;verdana, arial, helvetica, sans-serif&quot;&gt;&lt;span style=&quot;font-size: 12.96px&quot;&gt;编号&lt;/span&gt;&lt;/font&gt;" style="ellipse;whiteSpace=wrap;html=1;align=center;" vertex="1" parent="Sc9yQ6TO0yZFQ_2XBnEG-1">
          <mxGeometry x="2360" y="42" width="100" height="40" as="geometry" />
        </mxCell>
        <mxCell id="QEEeFV-9qL2b_EY3cjki-269" value="" style="endArrow=none;html=1;rounded=0;entryX=1.01;entryY=0.675;entryDx=0;entryDy=0;entryPerimeter=0;" edge="1" target="QEEeFV-9qL2b_EY3cjki-266" parent="Sc9yQ6TO0yZFQ_2XBnEG-1">
          <mxGeometry relative="1" as="geometry">
            <mxPoint x="2420" y="110" as="sourcePoint" />
            <mxPoint x="2350" y="73" as="targetPoint" />
          </mxGeometry>
        </mxCell>
        <mxCell id="QEEeFV-9qL2b_EY3cjki-270" value="" style="endArrow=none;html=1;rounded=0;exitX=0;exitY=0.75;exitDx=0;exitDy=0;entryX=1;entryY=0.5;entryDx=0;entryDy=0;" edge="1" source="QEEeFV-9qL2b_EY3cjki-262" target="QEEeFV-9qL2b_EY3cjki-265" parent="Sc9yQ6TO0yZFQ_2XBnEG-1">
          <mxGeometry relative="1" as="geometry">
            <mxPoint x="2445.9" y="172.48000000000002" as="sourcePoint" />
            <mxPoint x="2359.995937488609" y="110.00431817353365" as="targetPoint" />
          </mxGeometry>
        </mxCell>
        <mxCell id="QEEeFV-9qL2b_EY3cjki-271" value="" style="endArrow=none;html=1;rounded=0;exitX=0.5;exitY=1;exitDx=0;exitDy=0;entryX=0;entryY=0.5;entryDx=0;entryDy=0;" edge="1" target="QEEeFV-9qL2b_EY3cjki-264" parent="Sc9yQ6TO0yZFQ_2XBnEG-1">
          <mxGeometry relative="1" as="geometry">
            <mxPoint x="2520" y="100" as="sourcePoint" />
            <mxPoint x="2620" y="167" as="targetPoint" />
          </mxGeometry>
        </mxCell>
        <mxCell id="QEEeFV-9qL2b_EY3cjki-272" value="" style="endArrow=none;html=1;rounded=0;exitX=0.75;exitY=0;exitDx=0;exitDy=0;entryX=0;entryY=1;entryDx=0;entryDy=0;" edge="1" target="QEEeFV-9qL2b_EY3cjki-263" parent="Sc9yQ6TO0yZFQ_2XBnEG-1" source="QEEeFV-9qL2b_EY3cjki-262">
          <mxGeometry relative="1" as="geometry">
            <mxPoint x="2520" y="90" as="sourcePoint" />
            <mxPoint x="2595" y="72" as="targetPoint" />
          </mxGeometry>
        </mxCell>
        <mxCell id="QEEeFV-9qL2b_EY3cjki-274" value="" style="endArrow=none;html=1;rounded=0;exitX=0.63;exitY=1;exitDx=0;exitDy=0;exitPerimeter=0;" edge="1" source="QEEeFV-9qL2b_EY3cjki-267" parent="Sc9yQ6TO0yZFQ_2XBnEG-1">
          <mxGeometry relative="1" as="geometry">
            <mxPoint x="2445" y="60" as="sourcePoint" />
            <mxPoint x="2455" y="90" as="targetPoint" />
          </mxGeometry>
        </mxCell>
        <mxCell id="QEEeFV-9qL2b_EY3cjki-275" value="&lt;font face=&quot;verdana, arial, helvetica, sans-serif&quot;&gt;&lt;span style=&quot;font-size: 12.96px&quot;&gt;创建时间&lt;/span&gt;&lt;/font&gt;" style="ellipse;whiteSpace=wrap;html=1;align=center;" vertex="1" parent="Sc9yQ6TO0yZFQ_2XBnEG-1">
          <mxGeometry x="2590" y="110" width="100" height="40" as="geometry" />
        </mxCell>
        <mxCell id="QEEeFV-9qL2b_EY3cjki-276" value="" style="endArrow=none;html=1;rounded=0;entryX=0;entryY=0.5;entryDx=0;entryDy=0;exitX=1;exitY=0.75;exitDx=0;exitDy=0;" edge="1" source="QEEeFV-9qL2b_EY3cjki-262" target="QEEeFV-9qL2b_EY3cjki-275" parent="Sc9yQ6TO0yZFQ_2XBnEG-1">
          <mxGeometry relative="1" as="geometry">
            <mxPoint x="2525" y="130" as="sourcePoint" />
            <mxPoint x="2600" y="120" as="targetPoint" />
          </mxGeometry>
        </mxCell>
        <mxCell id="QEEeFV-9qL2b_EY3cjki-277" value="用户角色" style="whiteSpace=wrap;html=1;align=center;" vertex="1" parent="Sc9yQ6TO0yZFQ_2XBnEG-1">
          <mxGeometry x="2420" y="196" width="100" height="40" as="geometry" />
        </mxCell>
        <mxCell id="QEEeFV-9qL2b_EY3cjki-278" value="角色ID" style="ellipse;whiteSpace=wrap;html=1;align=center;" vertex="1" parent="Sc9yQ6TO0yZFQ_2XBnEG-1">
          <mxGeometry x="2485" y="150" width="100" height="40" as="geometry" />
        </mxCell>
        <mxCell id="QEEeFV-9qL2b_EY3cjki-279" value="&lt;font face=&quot;verdana, arial, helvetica, sans-serif&quot;&gt;&lt;span style=&quot;font-size: 12.96px&quot;&gt;用户ID&lt;/span&gt;&lt;/font&gt;" style="ellipse;whiteSpace=wrap;html=1;align=center;" vertex="1" parent="Sc9yQ6TO0yZFQ_2XBnEG-1">
          <mxGeometry x="2590" y="168" width="100" height="40" as="geometry" />
        </mxCell>
        <mxCell id="QEEeFV-9qL2b_EY3cjki-280" value="更新时间" style="ellipse;whiteSpace=wrap;html=1;align=center;" vertex="1" parent="Sc9yQ6TO0yZFQ_2XBnEG-1">
          <mxGeometry x="2260" y="216" width="100" height="40" as="geometry" />
        </mxCell>
        <mxCell id="QEEeFV-9qL2b_EY3cjki-281" value="逻辑删除&amp;nbsp;" style="ellipse;whiteSpace=wrap;html=1;align=center;" vertex="1" parent="Sc9yQ6TO0yZFQ_2XBnEG-1">
          <mxGeometry x="2260" y="166" width="100" height="40" as="geometry" />
        </mxCell>
        <mxCell id="QEEeFV-9qL2b_EY3cjki-282" value="&lt;font face=&quot;verdana, arial, helvetica, sans-serif&quot;&gt;&lt;span style=&quot;font-size: 12.96px&quot;&gt;编号&lt;/span&gt;&lt;/font&gt;" style="ellipse;whiteSpace=wrap;html=1;align=center;" vertex="1" parent="Sc9yQ6TO0yZFQ_2XBnEG-1">
          <mxGeometry x="2370" y="150" width="100" height="40" as="geometry" />
        </mxCell>
        <mxCell id="QEEeFV-9qL2b_EY3cjki-283" value="" style="endArrow=none;html=1;rounded=0;entryX=1.01;entryY=0.675;entryDx=0;entryDy=0;entryPerimeter=0;" edge="1" target="QEEeFV-9qL2b_EY3cjki-281" parent="Sc9yQ6TO0yZFQ_2XBnEG-1">
          <mxGeometry relative="1" as="geometry">
            <mxPoint x="2420" y="216" as="sourcePoint" />
            <mxPoint x="2350" y="179" as="targetPoint" />
          </mxGeometry>
        </mxCell>
        <mxCell id="QEEeFV-9qL2b_EY3cjki-284" value="" style="endArrow=none;html=1;rounded=0;exitX=0;exitY=0.75;exitDx=0;exitDy=0;entryX=1;entryY=0.5;entryDx=0;entryDy=0;" edge="1" source="QEEeFV-9qL2b_EY3cjki-277" target="QEEeFV-9qL2b_EY3cjki-280" parent="Sc9yQ6TO0yZFQ_2XBnEG-1">
          <mxGeometry relative="1" as="geometry">
            <mxPoint x="2445.9" y="278.48" as="sourcePoint" />
            <mxPoint x="2359.995937488609" y="216.00431817353365" as="targetPoint" />
          </mxGeometry>
        </mxCell>
        <mxCell id="QEEeFV-9qL2b_EY3cjki-285" value="" style="endArrow=none;html=1;rounded=0;exitX=0.5;exitY=1;exitDx=0;exitDy=0;entryX=0;entryY=0.5;entryDx=0;entryDy=0;" edge="1" target="QEEeFV-9qL2b_EY3cjki-279" parent="Sc9yQ6TO0yZFQ_2XBnEG-1">
          <mxGeometry relative="1" as="geometry">
            <mxPoint x="2520" y="206" as="sourcePoint" />
            <mxPoint x="2620" y="273" as="targetPoint" />
          </mxGeometry>
        </mxCell>
        <mxCell id="QEEeFV-9qL2b_EY3cjki-286" value="" style="endArrow=none;html=1;rounded=0;exitX=0.75;exitY=0;exitDx=0;exitDy=0;entryX=0;entryY=1;entryDx=0;entryDy=0;" edge="1" source="QEEeFV-9qL2b_EY3cjki-277" target="QEEeFV-9qL2b_EY3cjki-278" parent="Sc9yQ6TO0yZFQ_2XBnEG-1">
          <mxGeometry relative="1" as="geometry">
            <mxPoint x="2520" y="196" as="sourcePoint" />
            <mxPoint x="2595" y="178" as="targetPoint" />
          </mxGeometry>
        </mxCell>
        <mxCell id="QEEeFV-9qL2b_EY3cjki-287" value="" style="endArrow=none;html=1;rounded=0;exitX=0.63;exitY=1;exitDx=0;exitDy=0;exitPerimeter=0;" edge="1" source="QEEeFV-9qL2b_EY3cjki-282" parent="Sc9yQ6TO0yZFQ_2XBnEG-1">
          <mxGeometry relative="1" as="geometry">
            <mxPoint x="2445" y="166" as="sourcePoint" />
            <mxPoint x="2455" y="196" as="targetPoint" />
          </mxGeometry>
        </mxCell>
        <mxCell id="QEEeFV-9qL2b_EY3cjki-288" value="&lt;font face=&quot;verdana, arial, helvetica, sans-serif&quot;&gt;&lt;span style=&quot;font-size: 12.96px&quot;&gt;创建时间&lt;/span&gt;&lt;/font&gt;" style="ellipse;whiteSpace=wrap;html=1;align=center;" vertex="1" parent="Sc9yQ6TO0yZFQ_2XBnEG-1">
          <mxGeometry x="2590" y="216" width="100" height="40" as="geometry" />
        </mxCell>
        <mxCell id="QEEeFV-9qL2b_EY3cjki-289" value="" style="endArrow=none;html=1;rounded=0;entryX=0;entryY=0.5;entryDx=0;entryDy=0;exitX=1;exitY=0.75;exitDx=0;exitDy=0;" edge="1" source="QEEeFV-9qL2b_EY3cjki-277" target="QEEeFV-9qL2b_EY3cjki-288" parent="Sc9yQ6TO0yZFQ_2XBnEG-1">
          <mxGeometry relative="1" as="geometry">
            <mxPoint x="2525" y="236" as="sourcePoint" />
            <mxPoint x="2600" y="226" as="targetPoint" />
          </mxGeometry>
        </mxCell>
        <mxCell id="QEEeFV-9qL2b_EY3cjki-290" value="banner" style="whiteSpace=wrap;html=1;align=center;" vertex="1" parent="Sc9yQ6TO0yZFQ_2XBnEG-1">
          <mxGeometry x="2418" y="330" width="100" height="40" as="geometry" />
        </mxCell>
        <mxCell id="QEEeFV-9qL2b_EY3cjki-291" value="图片地址" style="ellipse;whiteSpace=wrap;html=1;align=center;" vertex="1" parent="Sc9yQ6TO0yZFQ_2XBnEG-1">
          <mxGeometry x="2553" y="260" width="100" height="40" as="geometry" />
        </mxCell>
        <mxCell id="QEEeFV-9qL2b_EY3cjki-292" value="&lt;font face=&quot;verdana, arial, helvetica, sans-serif&quot;&gt;&lt;span style=&quot;font-size: 12.96px&quot;&gt;链接地址&lt;/span&gt;&lt;/font&gt;" style="ellipse;whiteSpace=wrap;html=1;align=center;" vertex="1" parent="Sc9yQ6TO0yZFQ_2XBnEG-1">
          <mxGeometry x="2588" y="302" width="100" height="40" as="geometry" />
        </mxCell>
        <mxCell id="QEEeFV-9qL2b_EY3cjki-293" value="更新时间" style="ellipse;whiteSpace=wrap;html=1;align=center;" vertex="1" parent="Sc9yQ6TO0yZFQ_2XBnEG-1">
          <mxGeometry x="2258" y="344" width="100" height="40" as="geometry" />
        </mxCell>
        <mxCell id="QEEeFV-9qL2b_EY3cjki-294" value="逻辑删除&amp;nbsp;" style="ellipse;whiteSpace=wrap;html=1;align=center;" vertex="1" parent="Sc9yQ6TO0yZFQ_2XBnEG-1">
          <mxGeometry x="2258" y="300" width="100" height="40" as="geometry" />
        </mxCell>
        <mxCell id="QEEeFV-9qL2b_EY3cjki-295" value="&lt;font face=&quot;verdana, arial, helvetica, sans-serif&quot;&gt;&lt;span style=&quot;font-size: 12.96px&quot;&gt;ID&lt;/span&gt;&lt;/font&gt;" style="ellipse;whiteSpace=wrap;html=1;align=center;" vertex="1" parent="Sc9yQ6TO0yZFQ_2XBnEG-1">
          <mxGeometry x="2342" y="254" width="100" height="40" as="geometry" />
        </mxCell>
        <mxCell id="QEEeFV-9qL2b_EY3cjki-296" value="&lt;div&gt;标题&lt;/div&gt;" style="ellipse;whiteSpace=wrap;html=1;align=center;" vertex="1" parent="Sc9yQ6TO0yZFQ_2XBnEG-1">
          <mxGeometry x="2443" y="260" width="100" height="40" as="geometry" />
        </mxCell>
        <mxCell id="QEEeFV-9qL2b_EY3cjki-297" value="" style="endArrow=none;html=1;rounded=0;entryX=1.01;entryY=0.675;entryDx=0;entryDy=0;entryPerimeter=0;" edge="1" target="QEEeFV-9qL2b_EY3cjki-294" parent="Sc9yQ6TO0yZFQ_2XBnEG-1">
          <mxGeometry relative="1" as="geometry">
            <mxPoint x="2418" y="350" as="sourcePoint" />
            <mxPoint x="2348" y="313" as="targetPoint" />
          </mxGeometry>
        </mxCell>
        <mxCell id="QEEeFV-9qL2b_EY3cjki-298" value="" style="endArrow=none;html=1;rounded=0;exitX=0;exitY=0.75;exitDx=0;exitDy=0;entryX=1;entryY=0.5;entryDx=0;entryDy=0;" edge="1" source="QEEeFV-9qL2b_EY3cjki-290" target="QEEeFV-9qL2b_EY3cjki-293" parent="Sc9yQ6TO0yZFQ_2XBnEG-1">
          <mxGeometry relative="1" as="geometry">
            <mxPoint x="2443.9" y="412.48" as="sourcePoint" />
            <mxPoint x="2357.995937488609" y="350.00431817353365" as="targetPoint" />
          </mxGeometry>
        </mxCell>
        <mxCell id="QEEeFV-9qL2b_EY3cjki-299" value="" style="endArrow=none;html=1;rounded=0;exitX=0.5;exitY=1;exitDx=0;exitDy=0;entryX=0;entryY=0.5;entryDx=0;entryDy=0;" edge="1" target="QEEeFV-9qL2b_EY3cjki-292" parent="Sc9yQ6TO0yZFQ_2XBnEG-1">
          <mxGeometry relative="1" as="geometry">
            <mxPoint x="2518" y="340" as="sourcePoint" />
            <mxPoint x="2618" y="407" as="targetPoint" />
          </mxGeometry>
        </mxCell>
        <mxCell id="QEEeFV-9qL2b_EY3cjki-300" value="" style="endArrow=none;html=1;rounded=0;exitX=0.5;exitY=1;exitDx=0;exitDy=0;entryX=0;entryY=1;entryDx=0;entryDy=0;" edge="1" target="QEEeFV-9qL2b_EY3cjki-291" parent="Sc9yQ6TO0yZFQ_2XBnEG-1">
          <mxGeometry relative="1" as="geometry">
            <mxPoint x="2518" y="330" as="sourcePoint" />
            <mxPoint x="2593" y="312" as="targetPoint" />
          </mxGeometry>
        </mxCell>
        <mxCell id="QEEeFV-9qL2b_EY3cjki-301" value="" style="endArrow=none;html=1;rounded=0;exitX=0.5;exitY=0;exitDx=0;exitDy=0;entryX=0.5;entryY=1;entryDx=0;entryDy=0;" edge="1" source="QEEeFV-9qL2b_EY3cjki-290" target="QEEeFV-9qL2b_EY3cjki-296" parent="Sc9yQ6TO0yZFQ_2XBnEG-1">
          <mxGeometry relative="1" as="geometry">
            <mxPoint x="2428" y="336" as="sourcePoint" />
            <mxPoint x="2513" y="300" as="targetPoint" />
          </mxGeometry>
        </mxCell>
        <mxCell id="QEEeFV-9qL2b_EY3cjki-302" value="" style="endArrow=none;html=1;rounded=0;exitX=0.63;exitY=1;exitDx=0;exitDy=0;exitPerimeter=0;" edge="1" source="QEEeFV-9qL2b_EY3cjki-295" parent="Sc9yQ6TO0yZFQ_2XBnEG-1">
          <mxGeometry relative="1" as="geometry">
            <mxPoint x="2443" y="300" as="sourcePoint" />
            <mxPoint x="2453" y="330" as="targetPoint" />
          </mxGeometry>
        </mxCell>
        <mxCell id="QEEeFV-9qL2b_EY3cjki-303" value="&lt;font face=&quot;verdana, arial, helvetica, sans-serif&quot;&gt;&lt;span style=&quot;font-size: 12.96px&quot;&gt;创建时间&lt;/span&gt;&lt;/font&gt;" style="ellipse;whiteSpace=wrap;html=1;align=center;" vertex="1" parent="Sc9yQ6TO0yZFQ_2XBnEG-1">
          <mxGeometry x="2588" y="350" width="100" height="40" as="geometry" />
        </mxCell>
        <mxCell id="QEEeFV-9qL2b_EY3cjki-304" value="" style="endArrow=none;html=1;rounded=0;entryX=0;entryY=0.5;entryDx=0;entryDy=0;exitX=1;exitY=0.75;exitDx=0;exitDy=0;" edge="1" source="QEEeFV-9qL2b_EY3cjki-290" target="QEEeFV-9qL2b_EY3cjki-303" parent="Sc9yQ6TO0yZFQ_2XBnEG-1">
          <mxGeometry relative="1" as="geometry">
            <mxPoint x="2523" y="370" as="sourcePoint" />
            <mxPoint x="2598" y="360" as="targetPoint" />
          </mxGeometry>
        </mxCell>
        <mxCell id="QEEeFV-9qL2b_EY3cjki-320" value="网站统计日数据" style="whiteSpace=wrap;html=1;align=center;" vertex="1" parent="Sc9yQ6TO0yZFQ_2XBnEG-1">
          <mxGeometry x="2415" y="453" width="100" height="40" as="geometry" />
        </mxCell>
        <mxCell id="QEEeFV-9qL2b_EY3cjki-321" value="注册人数" style="ellipse;whiteSpace=wrap;html=1;align=center;" vertex="1" parent="Sc9yQ6TO0yZFQ_2XBnEG-1">
          <mxGeometry x="2553" y="390" width="100" height="40" as="geometry" />
        </mxCell>
        <mxCell id="QEEeFV-9qL2b_EY3cjki-322" value="&lt;font face=&quot;verdana, arial, helvetica, sans-serif&quot;&gt;&lt;span style=&quot;font-size: 12.96px&quot;&gt;登录人数&lt;/span&gt;&lt;/font&gt;" style="ellipse;whiteSpace=wrap;html=1;align=center;" vertex="1" parent="Sc9yQ6TO0yZFQ_2XBnEG-1">
          <mxGeometry x="2585" y="431" width="100" height="40" as="geometry" />
        </mxCell>
        <mxCell id="QEEeFV-9qL2b_EY3cjki-323" value="更新时间" style="ellipse;whiteSpace=wrap;html=1;align=center;" vertex="1" parent="Sc9yQ6TO0yZFQ_2XBnEG-1">
          <mxGeometry x="2255" y="473" width="100" height="40" as="geometry" />
        </mxCell>
        <mxCell id="QEEeFV-9qL2b_EY3cjki-324" value="&lt;span style=&quot;font-family: &amp;#34;verdana&amp;#34; , &amp;#34;arial&amp;#34; , &amp;#34;helvetica&amp;#34; , sans-serif ; font-size: 12.96px&quot;&gt;创建时间&lt;/span&gt;" style="ellipse;whiteSpace=wrap;html=1;align=center;" vertex="1" parent="Sc9yQ6TO0yZFQ_2XBnEG-1">
          <mxGeometry x="2255" y="423" width="100" height="40" as="geometry" />
        </mxCell>
        <mxCell id="QEEeFV-9qL2b_EY3cjki-325" value="&lt;font face=&quot;verdana, arial, helvetica, sans-serif&quot;&gt;&lt;span style=&quot;font-size: 12.96px&quot;&gt;主键&lt;/span&gt;&lt;/font&gt;" style="ellipse;whiteSpace=wrap;html=1;align=center;" vertex="1" parent="Sc9yQ6TO0yZFQ_2XBnEG-1">
          <mxGeometry x="2330" y="383" width="100" height="40" as="geometry" />
        </mxCell>
        <mxCell id="QEEeFV-9qL2b_EY3cjki-326" value="&lt;div&gt;统计日期&lt;/div&gt;" style="ellipse;whiteSpace=wrap;html=1;align=center;" vertex="1" parent="Sc9yQ6TO0yZFQ_2XBnEG-1">
          <mxGeometry x="2440" y="383" width="100" height="40" as="geometry" />
        </mxCell>
        <mxCell id="QEEeFV-9qL2b_EY3cjki-327" value="" style="endArrow=none;html=1;rounded=0;entryX=1.01;entryY=0.675;entryDx=0;entryDy=0;entryPerimeter=0;" edge="1" target="QEEeFV-9qL2b_EY3cjki-324" parent="Sc9yQ6TO0yZFQ_2XBnEG-1">
          <mxGeometry relative="1" as="geometry">
            <mxPoint x="2415" y="473" as="sourcePoint" />
            <mxPoint x="2345" y="436" as="targetPoint" />
          </mxGeometry>
        </mxCell>
        <mxCell id="QEEeFV-9qL2b_EY3cjki-328" value="" style="endArrow=none;html=1;rounded=0;exitX=0;exitY=0.75;exitDx=0;exitDy=0;entryX=1;entryY=0.5;entryDx=0;entryDy=0;" edge="1" source="QEEeFV-9qL2b_EY3cjki-320" target="QEEeFV-9qL2b_EY3cjki-323" parent="Sc9yQ6TO0yZFQ_2XBnEG-1">
          <mxGeometry relative="1" as="geometry">
            <mxPoint x="2440.9" y="535.48" as="sourcePoint" />
            <mxPoint x="2354.995937488609" y="473.00431817353365" as="targetPoint" />
          </mxGeometry>
        </mxCell>
        <mxCell id="QEEeFV-9qL2b_EY3cjki-329" value="" style="endArrow=none;html=1;rounded=0;exitX=0.5;exitY=1;exitDx=0;exitDy=0;entryX=0;entryY=0.5;entryDx=0;entryDy=0;" edge="1" target="QEEeFV-9qL2b_EY3cjki-322" parent="Sc9yQ6TO0yZFQ_2XBnEG-1">
          <mxGeometry relative="1" as="geometry">
            <mxPoint x="2515" y="463" as="sourcePoint" />
            <mxPoint x="2615" y="530" as="targetPoint" />
          </mxGeometry>
        </mxCell>
        <mxCell id="QEEeFV-9qL2b_EY3cjki-330" value="" style="endArrow=none;html=1;rounded=0;exitX=0.5;exitY=1;exitDx=0;exitDy=0;entryX=0;entryY=1;entryDx=0;entryDy=0;" edge="1" target="QEEeFV-9qL2b_EY3cjki-321" parent="Sc9yQ6TO0yZFQ_2XBnEG-1">
          <mxGeometry relative="1" as="geometry">
            <mxPoint x="2515" y="453" as="sourcePoint" />
            <mxPoint x="2590" y="435" as="targetPoint" />
          </mxGeometry>
        </mxCell>
        <mxCell id="QEEeFV-9qL2b_EY3cjki-331" value="" style="endArrow=none;html=1;rounded=0;exitX=0.5;exitY=0;exitDx=0;exitDy=0;entryX=0.5;entryY=1;entryDx=0;entryDy=0;" edge="1" source="QEEeFV-9qL2b_EY3cjki-320" target="QEEeFV-9qL2b_EY3cjki-326" parent="Sc9yQ6TO0yZFQ_2XBnEG-1">
          <mxGeometry relative="1" as="geometry">
            <mxPoint x="2425" y="459" as="sourcePoint" />
            <mxPoint x="2510" y="423" as="targetPoint" />
          </mxGeometry>
        </mxCell>
        <mxCell id="QEEeFV-9qL2b_EY3cjki-332" value="" style="endArrow=none;html=1;rounded=0;exitX=0.63;exitY=1;exitDx=0;exitDy=0;exitPerimeter=0;" edge="1" source="QEEeFV-9qL2b_EY3cjki-325" parent="Sc9yQ6TO0yZFQ_2XBnEG-1">
          <mxGeometry relative="1" as="geometry">
            <mxPoint x="2440" y="423" as="sourcePoint" />
            <mxPoint x="2450" y="453" as="targetPoint" />
          </mxGeometry>
        </mxCell>
        <mxCell id="QEEeFV-9qL2b_EY3cjki-333" value="&lt;font face=&quot;verdana, arial, helvetica, sans-serif&quot;&gt;&lt;span style=&quot;font-size: 12.96px&quot;&gt;每日播放视频数&lt;/span&gt;&lt;/font&gt;" style="ellipse;whiteSpace=wrap;html=1;align=center;" vertex="1" parent="Sc9yQ6TO0yZFQ_2XBnEG-1">
          <mxGeometry x="2585" y="473" width="100" height="40" as="geometry" />
        </mxCell>
        <mxCell id="QEEeFV-9qL2b_EY3cjki-334" value="" style="endArrow=none;html=1;rounded=0;entryX=0;entryY=0.5;entryDx=0;entryDy=0;exitX=1;exitY=0.75;exitDx=0;exitDy=0;" edge="1" source="QEEeFV-9qL2b_EY3cjki-320" target="QEEeFV-9qL2b_EY3cjki-333" parent="Sc9yQ6TO0yZFQ_2XBnEG-1">
          <mxGeometry relative="1" as="geometry">
            <mxPoint x="2520" y="493" as="sourcePoint" />
            <mxPoint x="2595" y="483" as="targetPoint" />
          </mxGeometry>
        </mxCell>
        <mxCell id="QEEeFV-9qL2b_EY3cjki-335" value="&lt;font face=&quot;verdana, arial, helvetica, sans-serif&quot;&gt;&lt;span style=&quot;font-size: 12.96px&quot;&gt;排序&lt;/span&gt;&lt;/font&gt;" style="ellipse;whiteSpace=wrap;html=1;align=center;" vertex="1" parent="Sc9yQ6TO0yZFQ_2XBnEG-1">
          <mxGeometry x="2240" y="256" width="100" height="40" as="geometry" />
        </mxCell>
        <mxCell id="QEEeFV-9qL2b_EY3cjki-336" value="" style="endArrow=none;html=1;rounded=0;exitX=1;exitY=1;exitDx=0;exitDy=0;" edge="1" parent="Sc9yQ6TO0yZFQ_2XBnEG-1" source="QEEeFV-9qL2b_EY3cjki-335">
          <mxGeometry relative="1" as="geometry">
            <mxPoint x="2372" y="294" as="sourcePoint" />
            <mxPoint x="2420" y="330" as="targetPoint" />
          </mxGeometry>
        </mxCell>
        <mxCell id="QEEeFV-9qL2b_EY3cjki-337" value="&lt;font face=&quot;verdana, arial, helvetica, sans-serif&quot;&gt;&lt;span style=&quot;font-size: 12.96px&quot;&gt;每日新增课程数&amp;nbsp;&lt;/span&gt;&lt;/font&gt;" style="ellipse;whiteSpace=wrap;html=1;align=center;" vertex="1" parent="Sc9yQ6TO0yZFQ_2XBnEG-1">
          <mxGeometry x="2224" y="383" width="100" height="40" as="geometry" />
        </mxCell>
        <mxCell id="QEEeFV-9qL2b_EY3cjki-338" value="" style="endArrow=none;html=1;rounded=0;exitX=0.95;exitY=0.7;exitDx=0;exitDy=0;exitPerimeter=0;" edge="1" parent="Sc9yQ6TO0yZFQ_2XBnEG-1" source="QEEeFV-9qL2b_EY3cjki-337">
          <mxGeometry relative="1" as="geometry">
            <mxPoint x="2358" y="428" as="sourcePoint" />
            <mxPoint x="2415" y="458" as="targetPoint" />
          </mxGeometry>
        </mxCell>
      </root>
    </mxGraphModel>
  </diagram>
</mxfile>
